<?xml version="1.0" encoding="utf-8"?>
<!-- Generator: Adobe Illustrator 22.1.0, SVG Export Plug-In . SVG Version: 6.00 Build 0)  -->
<svg version="1.1" id="Layer_1" xmlns="http://www.w3.org/2000/svg" xmlns:xlink="http://www.w3.org/1999/xlink" x="0px" y="0px"
	 viewBox="0 0 28 28" style="enable-background:new 0 0 28 28;" xml:space="preserve">
<style type="text/css">
	.st0{fill:#90A4AE;}
	.st1{filter:url(#Adobe_OpacityMaskFilter);}
	.st2{fill:#FFFFFF;}
	.st3{mask:url(#mask-2_2_);}
</style>
<g id="Home">
	<g id="mobile_x2F_navigation-home" transform="translate(-268.000000, -74.000000)">
		<g id="Icon_x2F_search" transform="translate(266.000000, 72.000000)">
			<g id="Combined-Shape">
				<path id="path-1_1_" class="st0" d="M21.2,19.8l4.5,4.5c0.4,0.4,0.4,1,0,1.4c-0.4,0.4-1,0.4-1.4,0l-4.5-4.5
					c-1.4,1.1-3.3,1.8-5.3,1.8C9.8,23,6,19.2,6,14.5S9.8,6,14.5,6S23,9.8,23,14.5C23,16.5,22.3,18.3,21.2,19.8z M19.2,19
					c1.1-1.2,1.8-2.8,1.8-4.5c0-3.6-2.9-6.5-6.5-6.5S8,10.9,8,14.5s2.9,6.5,6.5,6.5c1.8,0,3.4-0.7,4.5-1.8
					C19.1,19.1,19.1,19.1,19.2,19C19.1,19.1,19.1,19.1,19.2,19z"/>
			</g>
			<defs>
				<filter id="Adobe_OpacityMaskFilter" filterUnits="userSpaceOnUse" x="4" y="4" width="24" height="24">
					<feColorMatrix  type="matrix" values="1 0 0 0 0  0 1 0 0 0  0 0 1 0 0  0 0 0 1 0"/>
				</filter>
			</defs>
			<mask maskUnits="userSpaceOnUse" x="4" y="4" width="24" height="24" id="mask-2_2_">
				<g class="st1">
					<path id="path-1_3_" class="st2" d="M21.2,19.8l4.5,4.5c0.4,0.4,0.4,1,0,1.4c-0.4,0.4-1,0.4-1.4,0l-4.5-4.5
						c-1.4,1.1-3.3,1.8-5.3,1.8C9.8,23,6,19.2,6,14.5S9.8,6,14.5,6S23,9.8,23,14.5C23,16.5,22.3,18.3,21.2,19.8z M19.2,19
						c1.1-1.2,1.8-2.8,1.8-4.5c0-3.6-2.9-6.5-6.5-6.5S8,10.9,8,14.5s2.9,6.5,6.5,6.5c1.8,0,3.4-0.7,4.5-1.8
						C19.1,19.1,19.1,19.1,19.2,19C19.1,19.1,19.1,19.1,19.2,19z"/>
				</g>
			</mask>
			<g id="Colour_x2F_Fill_x2F_Grey" class="st3">
				<path class="st0" d="M6,4h20c1.1,0,2,0.9,2,2v20c0,1.1-0.9,2-2,2H6c-1.1,0-2-0.9-2-2V6C4,4.9,4.9,4,6,4z"/>
			</g>
		</g>
	</g>
</g>
</svg>
