<?xml version="1.0" encoding="UTF-8"?>
<svg width="46px" height="46px" viewBox="0 0 46 46" version="1.1" xmlns="http://www.w3.org/2000/svg" xmlns:xlink="http://www.w3.org/1999/xlink">
    <!-- Generator: sketchtool 63.1 (101010) - https://sketch.com -->
    <title>31362A16-95BF-40B6-8CF0-74054F03FB1D</title>
    <desc>Created with sketchtool.</desc>
    <g id="Page-1" stroke="none" stroke-width="1" fill="none" fill-rule="evenodd">
        <g id="Concert-V1---Dark-Gold---updated" transform="translate(-285.000000, -5663.000000)">
            <g id="Group-29" transform="translate(229.000000, 5612.000000)">
                <g id="Group-28" transform="translate(0.000000, 51.000000)">
                    <g id="Group-21" transform="translate(56.000000, 0.000000)">
                        <rect id="Rectangle-Copy-4" fill="#C4302B" x="0" y="0" width="46" height="46" rx="4"></rect>
                        <g id="Group-16" transform="translate(11.000000, 11.000000)" fill="#FFFFFF" fill-rule="nonzero">
                            <g id="iconmonstr-youtube-8">
                                <path d="M10,9.333 L15.333,11.995 L10,14.667 L10,9.333 L10,9.333 Z M24,5 L24,19 C24,21.761 21.762,24 19,24 L5,24 C2.239,24 0,21.761 0,19 L0,5 C0,2.239 2.239,0 5,0 L19,0 C21.762,0 24,2.239 24,5 Z M20,12 C19.98,7.877 19.677,6.3 17.077,6.123 C14.674,5.959 9.323,5.96 6.924,6.123 C4.326,6.3 4.02,7.87 4,12 C4.02,16.123 4.323,17.7 6.923,17.877 C9.322,18.04 14.673,18.041 17.076,17.877 C19.674,17.7 19.98,16.13 20,12 Z" id="Shape"></path>
                            </g>
                        </g>
                    </g>
                </g>
            </g>
        </g>
    </g>
</svg>