<?xml version="1.0" encoding="UTF-8"?>
<svg width="218px" height="50px" viewBox="0 0 218 50" version="1.1" xmlns="http://www.w3.org/2000/svg" xmlns:xlink="http://www.w3.org/1999/xlink">
    <!-- Generator: sketchtool 63.1 (101010) - https://sketch.com -->
    <title>614E6CB9-C12F-4461-9A43-1753C2CE983F</title>
    <desc>Created with sketchtool.</desc>
    <g id="Page-1" stroke="none" stroke-width="1" fill="none" fill-rule="evenodd">
        <g id="Concert-V1---Dark-Gold---updated" transform="translate(-473.000000, -2745.000000)">
            <g id="Group-21" transform="translate(473.000000, 2745.000000)">
                <rect id="Rectangle-Copy-4" fill="#C4302B" x="0" y="0" width="218" height="50" rx="4"></rect>
                <g id="Group-16" transform="translate(26.000000, 13.000000)" fill="#FFFFFF">
                    <g id="iconmonstr-youtube-8" fill-rule="nonzero">
                        <path d="M10,9.333 L15.333,11.995 L10,14.667 L10,9.333 L10,9.333 Z M24,5 L24,19 C24,21.761 21.762,24 19,24 L5,24 C2.239,24 0,21.761 0,19 L0,5 C0,2.239 2.239,0 5,0 L19,0 C21.762,0 24,2.239 24,5 Z M20,12 C19.98,7.877 19.677,6.3 17.077,6.123 C14.674,5.959 9.323,5.96 6.924,6.123 C4.326,6.3 4.02,7.87 4,12 C4.02,16.123 4.323,17.7 6.923,17.877 C9.322,18.04 14.673,18.041 17.076,17.877 C19.674,17.7 19.98,16.13 20,12 Z" id="Shape"></path>
                    </g>
                    <g id="Group-14-Copy" transform="translate(36.000000, 2.000000)" font-family="Poppins-Regular, Poppins" font-size="14" font-weight="normal">
                        <text id="Watch-on-Youtube">
                            <tspan x="0" y="15">Watch on Youtube</tspan>
                        </text>
                    </g>
                </g>
            </g>
        </g>
    </g>
</svg>