<?xml version="1.0" encoding="UTF-8"?>
<svg width="85px" height="81px" viewBox="0 0 85 81" version="1.1" xmlns="http://www.w3.org/2000/svg" xmlns:xlink="http://www.w3.org/1999/xlink">
    <!-- Generator: sketchtool 63.1 (101010) - https://sketch.com -->
    <title>FCF13AB9-8803-4CF4-8FFD-A8922C06F5A2</title>
    <desc>Created with sketchtool.</desc>
    <g id="Page-1" stroke="none" stroke-width="1" fill="none" fill-rule="evenodd">
        <g id="Saptarang-Landing" transform="translate(-258.000000, -2572.000000)" fill="#CF5727" fill-rule="nonzero">
            <g id="Group-4" transform="translate(157.000000, 2139.000000)">
                <g id="Group-5" transform="translate(31.000000, 389.000000)">
                    <path d="M86.7493188,52 C86.8873751,52 86.9709355,51.9847095 87,51.9541284 C87,51.8088685 86.9981835,51.7075688 86.9945504,51.6502294 C86.9909173,51.5928899 86.9854678,51.5298165 86.9782016,51.4610092 C86.7311535,50.9411315 86.5168029,50.3543578 86.3351499,49.7006881 C86.1534968,49.0470183 86.013624,48.6150612 85.9155313,48.4048165 C85.8174387,48.1945719 85.5903724,47.976682 85.2343324,47.7511468 C84.8782925,47.5256116 84.2752044,47.2752294 83.4250681,47 L83.4250681,47 L83,47 L83,47.2637615 C83.2325159,47.6766055 83.3887375,48.037844 83.4686649,48.3474771 C83.5485922,48.6571101 83.6030881,48.8348624 83.6321526,48.8807339 C83.7629428,49.117737 83.9355132,49.2687309 84.1498638,49.3337156 C84.3642144,49.3987003 84.5930972,49.4655963 84.8365123,49.5344037 C85.0799273,49.603211 85.2815622,49.7522936 85.4414169,49.9816514 C85.5867393,50.2186544 85.9209809,50.8761468 86.4441417,51.9541284 C86.5313351,51.9847095 86.6330609,52 86.7493188,52 Z M88,54 L88,53 L83,53 L83,54 L88,54 Z M87,66 L87,56 L85,56 L85,64.9248555 L87,66 Z M100,54 L100,53 L88,53 L88,54 L100,54 Z M97.6918033,66 C98.4932605,65.1789077 99.0783242,64.3521657 99.4469945,63.519774 C99.8156648,62.6873823 100,61.8719397 100,61.0734463 C100,60.3653484 99.8677596,59.700565 99.6032787,59.079096 C99.3387978,58.4576271 98.9781421,57.9171375 98.5213115,57.4576271 C98.0644809,56.9981168 97.5435337,56.6403013 96.9584699,56.3841808 C96.3734062,56.1280603 95.7642987,56 95.1311475,56 C94.4819672,56 93.8788707,56.1205273 93.3218579,56.3615819 C92.7648452,56.6026365 92.2919854,56.86629 91.9032787,57.1525424 C91.5145719,57.4387947 91.2360656,57.6421846 91.0677596,57.7627119 L91.0677596,57.7627119 L91.0677596,56.4180791 L89,56.4180791 L89,64.9152542 L90.9715847,65.8870056 L90.9715847,62.5988701 C90.9715847,61.8305085 91.1058288,61.0885122 91.3743169,60.3728814 C91.6428051,59.6572505 91.9954463,59.039548 92.4322404,58.519774 C92.8690346,58 93.3659381,57.5932203 93.9229508,57.299435 C94.4799636,57.0056497 95.0229508,56.8587571 95.5519126,56.8587571 C97.3712204,56.8587571 98.2808743,57.7627119 98.2808743,59.5706215 C98.2808743,60.2937853 98.1766849,60.920904 97.968306,61.4519774 C97.7599271,61.9830508 97.5074681,62.4274953 97.210929,62.7853107 C96.9143898,63.1431262 96.5697632,63.4952919 96.1770492,63.8418079 C95.7843352,64.1883239 95.515847,64.4519774 95.3715847,64.6327684 L95.3715847,64.6327684 L97.6918033,66 Z M112.409906,66 L112.433817,54.487413 L114,54.487413 L114,53.0733798 L112.433817,53.0733798 C112.433817,50.5831102 112.109024,48.654526 111.459436,47.2876272 C110.809849,45.9207284 110.106462,44.8248527 109.349274,44 L109.349274,44 L107.065756,44 C107.017933,44.031423 106.994022,44.0942689 106.994022,44.1885378 C106.994022,44.3142296 107.009963,44.3770755 107.041845,44.3770755 C107.799032,45.3747545 108.400797,46.2781646 108.847139,47.0873058 C109.293481,47.8964471 109.61429,48.6211391 109.809564,49.2613819 C110.004839,49.9016247 110.124395,50.4908052 110.168232,51.0289234 C110.212069,51.5670416 110.233988,52.248527 110.233988,53.0733798 L110.233988,53.0733798 L100,53.0733798 L100,54.487413 L110.233988,54.487413 L110.233988,59.1301553 C109.205807,58.0303517 108.392827,57.234958 107.795047,56.7439743 C107.197267,56.2529905 106.483917,56.0074987 105.654996,56.0074987 C104.93766,56.0074987 104.288073,56.1685413 103.706234,56.4906267 C103.124395,56.812712 102.628238,57.2192466 102.217763,57.7102303 C101.807287,58.2012141 101.496442,58.6843421 101.285226,59.1596144 C101.074011,59.6348866 100.960433,60.0335654 100.944492,60.3556508 C100.944492,61.2119264 101.24936,62.0682021 101.859095,62.9244778 C102.46883,63.7807534 103.208084,64.4838422 104.076857,65.033744 C104.945631,65.5836458 105.730714,65.8585967 106.432109,65.8585967 C107.157415,65.8585967 107.81298,65.6504196 108.398804,65.2340653 C108.984629,64.8177111 109.596356,64.2049634 110.233988,63.3958222 L110.233988,63.3958222 L110.233988,65.0808784 L112.409906,66 Z M104.258065,64 C103.67176,64 103.14884,63.7371462 102.689304,63.2114385 C102.229768,62.6857308 102,62.0063547 102,61.1733102 C102,60.2998267 102.275325,59.5476603 102.825976,58.9168111 C103.376627,58.2859619 103.988681,57.8087811 104.662139,57.4852686 C105.335597,57.1617562 105.818902,57 106.112054,57 C106.896435,57 107.573854,57.2446563 108.144312,57.7339688 C108.714771,58.2232813 109,58.7227036 109,59.2322357 C109,59.7013287 108.750424,60.3200462 108.251273,61.0883882 C107.752122,61.8567302 107.132145,62.5340843 106.391341,63.1204506 C105.650538,63.7068169 104.939445,64 104.258065,64 Z M116.749319,52 C116.887375,52 116.970936,51.9847095 117,51.9541284 C117,51.8088685 116.998183,51.7075688 116.99455,51.6502294 C116.990917,51.5928899 116.985468,51.5298165 116.978202,51.4610092 C116.731153,50.9411315 116.516803,50.3543578 116.33515,49.7006881 C116.153497,49.0470183 116.013624,48.6150612 115.915531,48.4048165 C115.817439,48.1945719 115.590372,47.976682 115.234332,47.7511468 C114.878292,47.5256116 114.275204,47.2752294 113.425068,47 L113.425068,47 L113,47 L113,47.2637615 C113.232516,47.6766055 113.388738,48.037844 113.468665,48.3474771 C113.548592,48.6571101 113.603088,48.8348624 113.632153,48.8807339 C113.762943,49.117737 113.935513,49.2687309 114.149864,49.3337156 C114.364214,49.3987003 114.593097,49.4655963 114.836512,49.5344037 C115.079927,49.603211 115.281562,49.7522936 115.441417,49.9816514 C115.586739,50.2186544 115.920981,50.8761468 116.444142,51.9541284 C116.531335,51.9847095 116.633061,52 116.749319,52 Z M118,54 L118,53 L113,53 L113,54 L118,54 Z M117,66 L117,56 L115,56 L115,64.9248555 L117,66 Z M128.161677,66 L128.161677,61.4292237 C128.161677,60.4003044 128.135729,59.5910198 128.083832,59.0013699 C128.031936,58.4117199 127.884232,57.8794521 127.640719,57.4045662 C127.397206,56.9296804 127,56.5616438 126.449102,56.3004566 C125.898204,56.0392694 125.143713,55.9086758 124.185629,55.9086758 C123.762475,55.9086758 123.327345,55.9482496 122.88024,56.0273973 C122.433134,56.1065449 122.037924,56.1916286 121.694611,56.2826484 C121.351297,56.3736682 121.187625,56.4191781 121.203593,56.4191781 C121.171657,56.4191781 121.143713,56.4033486 121.11976,56.3716895 C121.095808,56.3400304 121.063872,56.3242009 121.023952,56.3242009 L121.023952,56.3242009 L121.023952,54.4246575 L129,54.4246575 L129,53 L117,53 L117,54.4246575 L119.45509,54.4246575 L119.45509,57.4876712 C119.447106,57.495586 119.42515,57.5193303 119.389222,57.5589041 C119.353293,57.5984779 119.283433,57.661796 119.179641,57.7488584 C119.075848,57.8359209 118.996008,57.9031963 118.94012,57.9506849 L118.94012,57.9506849 L118.94012,58.8292237 C119.315369,58.7025875 119.780439,58.526484 120.335329,58.3009132 C120.89022,58.0753425 121.409182,57.9091324 121.892216,57.8022831 C122.37525,57.6954338 123.035928,57.6261796 123.874251,57.5945205 C124.520958,57.5945205 124.996008,57.6697108 125.299401,57.8200913 C125.602794,57.9704718 125.922156,58.2593607 126.257485,58.686758 L126.257485,58.686758 L126.257485,59.7789954 C125.994012,59.5811263 125.608782,59.4010654 125.101796,59.2388128 C124.59481,59.0765601 124.061876,58.9954338 123.502994,58.9954338 C122.473054,58.9954338 121.522954,59.1952816 120.652695,59.5949772 C119.782435,59.9946728 119.087824,60.4972603 118.568862,61.1027397 C118.0499,61.7082192 117.790419,62.2879756 117.790419,62.8420091 C117.790419,63.4356164 117.996008,63.9678843 118.407186,64.4388128 C118.818363,64.9097412 119.355289,65.2718417 120.017964,65.5251142 C120.680639,65.7783866 121.359281,65.9050228 122.053892,65.9050228 C122.780439,65.9050228 123.407186,65.8377473 123.934132,65.7031963 C124.461078,65.5686454 124.888224,65.4123288 125.215569,65.2342466 C125.542914,65.0561644 125.838323,64.891933 126.101796,64.7415525 C126.205589,64.8127854 126.257485,64.9750381 126.257485,65.2283105 C126.393214,65.2837139 126.590818,65.3668189 126.850299,65.4776256 C127.10978,65.5884323 127.546906,65.7625571 128.161677,66 L128.161677,66 Z M120.807512,64 C120.405842,64 120.026082,63.934359 119.668232,63.8030769 C119.310381,63.6717949 119.087637,63.4379487 119,63.1015385 C119,62.7815385 119.186228,62.3712821 119.558685,61.8707692 C119.931142,61.3702564 120.442358,60.9333333 121.092332,60.56 C121.742306,60.1866667 122.46531,60 123.261346,60 C123.575378,60 124.110329,60.1271795 124.866197,60.3815385 C125.622066,60.6358974 126,60.9517949 126,61.3292308 C126,61.4358974 125.872196,61.6369231 125.616588,61.9323077 C125.360981,62.2276923 124.997653,62.5353846 124.526604,62.8553846 C124.055556,63.1753846 123.504173,63.4461538 122.872457,63.6676923 C122.240741,63.8892308 121.552426,64 120.807512,64 Z M141,54 L141,53 L129,53 L129,54 L141,54 Z M138.691803,66 C139.49326,65.1789077 140.078324,64.3521657 140.446995,63.519774 C140.815665,62.6873823 141,61.8719397 141,61.0734463 C141,60.3653484 140.86776,59.700565 140.603279,59.079096 C140.338798,58.4576271 139.978142,57.9171375 139.521311,57.4576271 C139.064481,56.9981168 138.543534,56.6403013 137.95847,56.3841808 C137.373406,56.1280603 136.764299,56 136.131148,56 C135.481967,56 134.878871,56.1205273 134.321858,56.3615819 C133.764845,56.6026365 133.291985,56.86629 132.903279,57.1525424 C132.514572,57.4387947 132.236066,57.6421846 132.06776,57.7627119 L132.06776,57.7627119 L132.06776,56.4180791 L130,56.4180791 L130,64.9152542 L131.971585,65.8870056 L131.971585,62.5988701 C131.971585,61.8305085 132.105829,61.0885122 132.374317,60.3728814 C132.642805,59.6572505 132.995446,59.039548 133.43224,58.519774 C133.869035,58 134.365938,57.5932203 134.922951,57.299435 C135.479964,57.0056497 136.022951,56.8587571 136.551913,56.8587571 C138.37122,56.8587571 139.280874,57.7627119 139.280874,59.5706215 C139.280874,60.2937853 139.176685,60.920904 138.968306,61.4519774 C138.759927,61.9830508 138.507468,62.4274953 138.210929,62.7853107 C137.91439,63.1431262 137.569763,63.4952919 137.177049,63.8418079 C136.784335,64.1883239 136.515847,64.4519774 136.371585,64.6327684 L136.371585,64.6327684 L138.691803,66 Z M76.6530233,92 C77.1367442,92 77.6669767,91.8682028 78.2437209,91.6046083 C78.8204651,91.3410138 79.3134884,91.0095238 79.7227907,90.6101382 C80.132093,90.2107527 80.3813953,89.815361 80.4706977,89.4239631 L80.4706977,89.4239631 L78.0930233,89.4239631 C77.9590698,89.6236559 77.6595349,89.8772657 77.1944186,90.1847926 C76.7293023,90.4923195 76.0688372,90.6460829 75.2130233,90.6460829 C74.5432558,90.6460829 73.9944186,90.5262673 73.5665116,90.2866359 C73.1386047,90.0470046 72.8297674,89.7334869 72.64,89.3460829 C72.4502326,88.958679 72.3553488,88.541321 72.3553488,88.0940092 C72.3553488,87.3751152 72.56,86.6262673 72.9693023,85.8474654 C73.3786047,85.0686636 73.9423256,84.4236559 74.6604651,83.9124424 C75.3786047,83.4012289 76.1767442,83.1456221 77.0548837,83.1456221 C77.8139535,83.1456221 78.4353488,83.3772657 78.9190698,83.840553 C79.4027907,84.3038402 79.6446512,84.9947773 79.6446512,85.9133641 L79.6446512,85.9133641 L81.1293023,85.9133641 C80.935814,85.3781874 80.7646512,85.0087558 80.615814,84.8050691 C80.4669767,84.6013825 80.1506977,84.2599078 79.6669767,83.7806452 L79.6669767,83.7806452 L79.6669767,80.437788 L82,80.437788 L82,79 L70,79 L70,80.437788 L77.8809302,80.437788 L77.8809302,82.4267281 C77.6948837,82.2829493 77.3860465,82.1291859 76.9544186,81.9654378 C76.5227907,81.8016897 76.0018605,81.7198157 75.3916279,81.7198157 C74.4465116,81.7198157 73.6055814,82.0033794 72.8688372,82.5705069 C72.132093,83.1376344 71.5609302,83.8026114 71.1553488,84.5654378 C70.7497674,85.3282642 70.5469767,85.9493088 70.5469767,86.4285714 C70.5469767,87.2752688 70.8502326,88.1339478 71.4567442,89.0046083 C72.0632558,89.8752688 72.8465116,90.5921659 73.8065116,91.1552995 C74.7665116,91.7184332 75.7153488,92 76.6530233,92 Z M86,92 L86,77.8195283 C86,77.1974767 85.9172185,76.4890291 85.7516556,75.6941854 C85.5860927,74.8993417 85.3009566,74.0814591 84.8962472,73.2405376 C84.4915379,72.399616 83.9764533,71.6527702 83.3509934,71 L83.3509934,71 L81,71 C81.0883002,71.0998354 81.3219279,71.372463 81.700883,71.8178826 C82.0798381,72.2633022 82.433039,72.75096 82.7604857,73.2808557 C83.0879323,73.8107515 83.384106,74.4750411 83.6490066,75.2737246 C83.9139073,76.0724081 84.0647535,76.928689 84.1015453,77.8425672 L84.1015453,77.8425672 L84.1015453,91.0323642 C84.1236203,91.0323642 84.2487123,91.0918815 84.4768212,91.2109161 C84.7049301,91.3299506 84.9256806,91.4470653 85.1390728,91.56226 C85.352465,91.6774547 85.5419426,91.7792101 85.7075055,91.8675261 C85.8730684,91.955842 85.9705666,92 86,92 L86,92 Z M87,80 L87,79 L86,79 L86,80 L87,80 Z M83,80 L83,79 L82,79 L82,80 L83,80 Z M98.1616766,92 L98.1616766,87.4292237 C98.1616766,86.4003044 98.1357285,85.5910198 98.0838323,85.0013699 C98.0319361,84.4117199 97.8842315,83.8794521 97.6407186,83.4045662 C97.3972056,82.9296804 97,82.5616438 96.4491018,82.3004566 C95.8982036,82.0392694 95.1437126,81.9086758 94.1856287,81.9086758 C93.762475,81.9086758 93.3273453,81.9482496 92.8802395,82.0273973 C92.4331337,82.1065449 92.0379242,82.1916286 91.6946108,82.2826484 C91.3512974,82.3736682 91.1876248,82.4191781 91.2035928,82.4191781 C91.1716567,82.4191781 91.1437126,82.4033486 91.1197605,82.3716895 C91.0958084,82.3400304 91.0638723,82.3242009 91.0239521,82.3242009 L91.0239521,82.3242009 L91.0239521,80.4246575 L99,80.4246575 L99,79 L87,79 L87,80.4246575 L89.4550898,80.4246575 L89.4550898,83.4876712 C89.4471058,83.495586 89.4251497,83.5193303 89.3892216,83.5589041 C89.3532934,83.5984779 89.2834331,83.661796 89.1796407,83.7488584 C89.0758483,83.8359209 88.996008,83.9031963 88.9401198,83.9506849 L88.9401198,83.9506849 L88.9401198,84.8292237 C89.3153693,84.7025875 89.7804391,84.526484 90.3353293,84.3009132 C90.8902196,84.0753425 91.4091816,83.9091324 91.8922156,83.8022831 C92.3752495,83.6954338 93.0359281,83.6261796 93.8742515,83.5945205 C94.5209581,83.5945205 94.996008,83.6697108 95.2994012,83.8200913 C95.6027944,83.9704718 95.9221557,84.2593607 96.257485,84.686758 L96.257485,84.686758 L96.257485,85.7789954 C95.994012,85.5811263 95.6087824,85.4010654 95.1017964,85.2388128 C94.5948104,85.0765601 94.0618762,84.9954338 93.502994,84.9954338 C92.4730539,84.9954338 91.5229541,85.1952816 90.6526946,85.5949772 C89.7824351,85.9946728 89.0878244,86.4972603 88.5688623,87.1027397 C88.0499002,87.7082192 87.7904192,88.2879756 87.7904192,88.8420091 C87.7904192,89.4356164 87.996008,89.9678843 88.4071856,90.4388128 C88.8183633,90.9097412 89.3552894,91.2718417 90.0179641,91.5251142 C90.6806387,91.7783866 91.3592814,91.9050228 92.0538922,91.9050228 C92.7804391,91.9050228 93.4071856,91.8377473 93.9341317,91.7031963 C94.4610778,91.5686454 94.8882236,91.4123288 95.2155689,91.2342466 C95.5429142,91.0561644 95.8383234,90.891933 96.1017964,90.7415525 C96.2055888,90.8127854 96.257485,90.9750381 96.257485,91.2283105 C96.3932136,91.2837139 96.5908184,91.3668189 96.8502994,91.4776256 C97.1097804,91.5884323 97.5469062,91.7625571 98.1616766,92 L98.1616766,92 Z M90.8075117,90 C90.4058425,90 90.0260824,89.934359 89.6682316,89.8030769 C89.3103808,89.6717949 89.0876369,89.4379487 89,89.1015385 C89,88.7815385 89.1862285,88.3712821 89.5586854,87.8707692 C89.9311424,87.3702564 90.4423579,86.9333333 91.0923318,86.56 C91.7423057,86.1866667 92.4653104,86 93.2613459,86 C93.5753782,86 94.1103286,86.1271795 94.8661972,86.3815385 C95.6220657,86.6358974 96,86.9517949 96,87.3292308 C96,87.4358974 95.8721961,87.6369231 95.6165884,87.9323077 C95.3609807,88.2276923 94.9976526,88.5353846 94.5266041,88.8553846 C94.0555556,89.1753846 93.5041732,89.4461538 92.872457,89.6676923 C92.2407407,89.8892308 91.5524257,90 90.8075117,90 Z M106.953488,95 C107.403101,95 107.746124,94.960347 107.982558,94.8810409 C108.218992,94.8017348 108.368217,94.7343247 108.430233,94.6788104 L108.430233,94.6788104 L107.255814,92.7159851 C107.069767,92.7635688 106.895349,92.7873606 106.732558,92.7873606 C106.228682,92.7873606 105.697674,92.5018587 105.139535,91.930855 C105.72093,91.891202 106.331395,91.7226766 106.97093,91.4252788 C107.610465,91.127881 108.158915,90.7174721 108.616279,90.194052 C109.073643,89.670632 109.302326,89.0877323 109.302326,88.4453532 C109.302326,87.9060719 109.141473,87.4302354 108.819767,87.0178439 C108.498062,86.6054523 108.067829,86.2902107 107.52907,86.072119 C106.99031,85.8540273 106.422481,85.7449814 105.825581,85.7449814 C105.189922,85.7449814 104.707364,85.7945477 104.377907,85.8936803 C104.04845,85.9928129 103.536822,86.1712515 102.843023,86.4289963 C102.149225,86.686741 101.620155,86.8156134 101.255814,86.8156134 C100.922481,86.8156134 100.676357,86.7065675 100.517442,86.4884758 C100.358527,86.2703841 100.27907,86.0622057 100.27907,85.8639405 C100.27907,85.3881041 100.54845,85.0054523 101.087209,84.7159851 C101.625969,84.426518 102.234496,84.2242875 102.912791,84.1092937 C103.591085,83.9942999 104.174419,83.936803 104.662791,83.936803 C105.251938,83.936803 105.965116,84.0359356 106.802326,84.2342007 C107.639535,84.4324659 108.282946,84.6664188 108.732558,84.9360595 L108.732558,84.9360595 L108.732558,80.4275093 L110,80.4275093 L110,79 L98,79 L98,80.4275093 L107.255814,80.4275093 L107.255814,82.4498141 C106.906977,82.3546468 106.401163,82.2376704 105.738372,82.0988848 C105.075581,81.9600991 104.527132,81.8907063 104.093023,81.8907063 C103.44186,81.8907063 102.748062,81.9858736 102.011628,82.1762082 C101.275194,82.3665428 100.643411,82.6857497 100.116279,83.133829 C99.5891473,83.5819083 99.3255814,84.1667906 99.3255814,84.8884758 C99.3333333,85.5546468 99.5251938,86.1692689 99.9011628,86.732342 C100.277132,87.2954151 100.746124,87.7335812 101.30814,88.0468401 C101.870155,88.3600991 102.418605,88.5167286 102.953488,88.5167286 C103.162791,88.5167286 103.728682,88.3898389 104.651163,88.1360595 C105.573643,87.88228 106.195736,87.711772 106.517442,87.6245353 C106.839147,87.5372986 107.143411,87.4936803 107.430233,87.4936803 C107.647287,87.4936803 107.856589,87.5194548 108.05814,87.5710037 C108.25969,87.6225527 108.437984,87.71772 108.593023,87.8565056 C108.748062,87.9952912 108.825581,88.1757125 108.825581,88.3977695 C108.825581,88.8022305 108.573643,89.1452292 108.069767,89.4267658 C107.565891,89.7083024 106.986434,89.9204461 106.331395,90.063197 C105.676357,90.205948 105.151163,90.2773234 104.755814,90.2773234 C104.197674,90.2773234 103.753876,90.2178439 103.424419,90.0988848 C103.094961,89.9799257 102.765504,89.8074349 102.436047,89.5814126 C102.106589,89.3553903 101.829457,89.1868649 101.604651,89.0758364 C101.379845,88.9648079 101.081395,88.9092937 100.709302,88.9092937 C100.406977,88.9092937 100.137597,88.9866171 99.9011628,89.1412639 C99.6647287,89.2959108 99.5465116,89.5516729 99.5465116,89.9085502 C99.5465116,90.4478315 99.7906977,90.872119 100.27907,91.1814126 C100.767442,91.4907063 101.296512,91.6949195 101.866279,91.794052 C102.436047,91.8931846 103.011628,91.9546468 103.593023,91.9784387 C103.817829,91.9784387 104.106589,92.2956629 104.459302,92.9301115 C104.812016,93.5645601 105.155039,94.0681537 105.488372,94.4408922 C105.821705,94.8136307 106.310078,95 106.953488,95 Z M118.953488,95 C119.403101,95 119.746124,94.960347 119.982558,94.8810409 C120.218992,94.8017348 120.368217,94.7343247 120.430233,94.6788104 L120.430233,94.6788104 L119.255814,92.7159851 C119.069767,92.7635688 118.895349,92.7873606 118.732558,92.7873606 C118.228682,92.7873606 117.697674,92.5018587 117.139535,91.930855 C117.72093,91.891202 118.331395,91.7226766 118.97093,91.4252788 C119.610465,91.127881 120.158915,90.7174721 120.616279,90.194052 C121.073643,89.670632 121.302326,89.0877323 121.302326,88.4453532 C121.302326,87.9060719 121.141473,87.4302354 120.819767,87.0178439 C120.498062,86.6054523 120.067829,86.2902107 119.52907,86.072119 C118.99031,85.8540273 118.422481,85.7449814 117.825581,85.7449814 C117.189922,85.7449814 116.707364,85.7945477 116.377907,85.8936803 C116.04845,85.9928129 115.536822,86.1712515 114.843023,86.4289963 C114.149225,86.686741 113.620155,86.8156134 113.255814,86.8156134 C112.922481,86.8156134 112.676357,86.7065675 112.517442,86.4884758 C112.358527,86.2703841 112.27907,86.0622057 112.27907,85.8639405 C112.27907,85.3881041 112.54845,85.0054523 113.087209,84.7159851 C113.625969,84.426518 114.234496,84.2242875 114.912791,84.1092937 C115.591085,83.9942999 116.174419,83.936803 116.662791,83.936803 C117.251938,83.936803 117.965116,84.0359356 118.802326,84.2342007 C119.639535,84.4324659 120.282946,84.6664188 120.732558,84.9360595 L120.732558,84.9360595 L120.732558,80.4275093 L122,80.4275093 L122,79 L110,79 L110,80.4275093 L119.255814,80.4275093 L119.255814,82.4498141 C118.906977,82.3546468 118.401163,82.2376704 117.738372,82.0988848 C117.075581,81.9600991 116.527132,81.8907063 116.093023,81.8907063 C115.44186,81.8907063 114.748062,81.9858736 114.011628,82.1762082 C113.275194,82.3665428 112.643411,82.6857497 112.116279,83.133829 C111.589147,83.5819083 111.325581,84.1667906 111.325581,84.8884758 C111.333333,85.5546468 111.525194,86.1692689 111.901163,86.732342 C112.277132,87.2954151 112.746124,87.7335812 113.30814,88.0468401 C113.870155,88.3600991 114.418605,88.5167286 114.953488,88.5167286 C115.162791,88.5167286 115.728682,88.3898389 116.651163,88.1360595 C117.573643,87.88228 118.195736,87.711772 118.517442,87.6245353 C118.839147,87.5372986 119.143411,87.4936803 119.430233,87.4936803 C119.647287,87.4936803 119.856589,87.5194548 120.05814,87.5710037 C120.25969,87.6225527 120.437984,87.71772 120.593023,87.8565056 C120.748062,87.9952912 120.825581,88.1757125 120.825581,88.3977695 C120.825581,88.8022305 120.573643,89.1452292 120.069767,89.4267658 C119.565891,89.7083024 118.986434,89.9204461 118.331395,90.063197 C117.676357,90.205948 117.151163,90.2773234 116.755814,90.2773234 C116.197674,90.2773234 115.753876,90.2178439 115.424419,90.0988848 C115.094961,89.9799257 114.765504,89.8074349 114.436047,89.5814126 C114.106589,89.3553903 113.829457,89.1868649 113.604651,89.0758364 C113.379845,88.9648079 113.081395,88.9092937 112.709302,88.9092937 C112.406977,88.9092937 112.137597,88.9866171 111.901163,89.1412639 C111.664729,89.2959108 111.546512,89.5516729 111.546512,89.9085502 C111.546512,90.4478315 111.790698,90.872119 112.27907,91.1814126 C112.767442,91.4907063 113.296512,91.6949195 113.866279,91.794052 C114.436047,91.8931846 115.011628,91.9546468 115.593023,91.9784387 C115.817829,91.9784387 116.106589,92.2956629 116.459302,92.9301115 C116.812016,93.5645601 117.155039,94.0681537 117.488372,94.4408922 C117.821705,94.8136307 118.310078,95 118.953488,95 Z M125.749319,78 C125.887375,78 125.970936,77.9847095 126,77.9541284 C126,77.8088685 125.998183,77.7075688 125.99455,77.6502294 C125.990917,77.5928899 125.985468,77.5298165 125.978202,77.4610092 C125.731153,76.9411315 125.516803,76.3543578 125.33515,75.7006881 C125.153497,75.0470183 125.013624,74.6150612 124.915531,74.4048165 C124.817439,74.1945719 124.590372,73.976682 124.234332,73.7511468 C123.878292,73.5256116 123.275204,73.2752294 122.425068,73 L122.425068,73 L122,73 L122,73.2637615 C122.232516,73.6766055 122.388738,74.037844 122.468665,74.3474771 C122.548592,74.6571101 122.603088,74.8348624 122.632153,74.8807339 C122.762943,75.117737 122.935513,75.2687309 123.149864,75.3337156 C123.364214,75.3987003 123.593097,75.4655963 123.836512,75.5344037 C124.079927,75.603211 124.281562,75.7522936 124.441417,75.9816514 C124.586739,76.2186544 124.920981,76.8761468 125.444142,77.9541284 C125.531335,77.9847095 125.633061,78 125.749319,78 Z M127,80 L127,79 L122,79 L122,80 L127,80 Z M125,92 L125,82 L123,82 L123,90.9248555 L125,92 Z M132.653023,92 C133.136744,92 133.666977,91.8682028 134.243721,91.6046083 C134.820465,91.3410138 135.313488,91.0095238 135.722791,90.6101382 C136.132093,90.2107527 136.381395,89.815361 136.470698,89.4239631 L136.470698,89.4239631 L134.093023,89.4239631 C133.95907,89.6236559 133.659535,89.8772657 133.194419,90.1847926 C132.729302,90.4923195 132.068837,90.6460829 131.213023,90.6460829 C130.543256,90.6460829 129.994419,90.5262673 129.566512,90.2866359 C129.138605,90.0470046 128.829767,89.7334869 128.64,89.3460829 C128.450233,88.958679 128.355349,88.541321 128.355349,88.0940092 C128.355349,87.3751152 128.56,86.6262673 128.969302,85.8474654 C129.378605,85.0686636 129.942326,84.4236559 130.660465,83.9124424 C131.378605,83.4012289 132.176744,83.1456221 133.054884,83.1456221 C133.813953,83.1456221 134.435349,83.3772657 134.91907,83.840553 C135.402791,84.3038402 135.644651,84.9947773 135.644651,85.9133641 L135.644651,85.9133641 L137.129302,85.9133641 C136.935814,85.3781874 136.764651,85.0087558 136.615814,84.8050691 C136.466977,84.6013825 136.150698,84.2599078 135.666977,83.7806452 L135.666977,83.7806452 L135.666977,80.437788 L138,80.437788 L138,79 L126,79 L126,80.437788 L133.88093,80.437788 L133.88093,82.4267281 C133.694884,82.2829493 133.386047,82.1291859 132.954419,81.9654378 C132.522791,81.8016897 132.00186,81.7198157 131.391628,81.7198157 C130.446512,81.7198157 129.605581,82.0033794 128.868837,82.5705069 C128.132093,83.1376344 127.56093,83.8026114 127.155349,84.5654378 C126.749767,85.3282642 126.546977,85.9493088 126.546977,86.4285714 C126.546977,87.2752688 126.850233,88.1339478 127.456744,89.0046083 C128.063256,89.8752688 128.846512,90.5921659 129.806512,91.1552995 C130.766512,91.7184332 131.715349,92 132.653023,92 Z M149.161677,92 L149.161677,87.4292237 C149.161677,86.4003044 149.135729,85.5910198 149.083832,85.0013699 C149.031936,84.4117199 148.884232,83.8794521 148.640719,83.4045662 C148.397206,82.9296804 148,82.5616438 147.449102,82.3004566 C146.898204,82.0392694 146.143713,81.9086758 145.185629,81.9086758 C144.762475,81.9086758 144.327345,81.9482496 143.88024,82.0273973 C143.433134,82.1065449 143.037924,82.1916286 142.694611,82.2826484 C142.351297,82.3736682 142.187625,82.4191781 142.203593,82.4191781 C142.171657,82.4191781 142.143713,82.4033486 142.11976,82.3716895 C142.095808,82.3400304 142.063872,82.3242009 142.023952,82.3242009 L142.023952,82.3242009 L142.023952,80.4246575 L150,80.4246575 L150,79 L138,79 L138,80.4246575 L140.45509,80.4246575 L140.45509,83.4876712 C140.447106,83.495586 140.42515,83.5193303 140.389222,83.5589041 C140.353293,83.5984779 140.283433,83.661796 140.179641,83.7488584 C140.075848,83.8359209 139.996008,83.9031963 139.94012,83.9506849 L139.94012,83.9506849 L139.94012,84.8292237 C140.315369,84.7025875 140.780439,84.526484 141.335329,84.3009132 C141.89022,84.0753425 142.409182,83.9091324 142.892216,83.8022831 C143.37525,83.6954338 144.035928,83.6261796 144.874251,83.5945205 C145.520958,83.5945205 145.996008,83.6697108 146.299401,83.8200913 C146.602794,83.9704718 146.922156,84.2593607 147.257485,84.686758 L147.257485,84.686758 L147.257485,85.7789954 C146.994012,85.5811263 146.608782,85.4010654 146.101796,85.2388128 C145.59481,85.0765601 145.061876,84.9954338 144.502994,84.9954338 C143.473054,84.9954338 142.522954,85.1952816 141.652695,85.5949772 C140.782435,85.9946728 140.087824,86.4972603 139.568862,87.1027397 C139.0499,87.7082192 138.790419,88.2879756 138.790419,88.8420091 C138.790419,89.4356164 138.996008,89.9678843 139.407186,90.4388128 C139.818363,90.9097412 140.355289,91.2718417 141.017964,91.5251142 C141.680639,91.7783866 142.359281,91.9050228 143.053892,91.9050228 C143.780439,91.9050228 144.407186,91.8377473 144.934132,91.7031963 C145.461078,91.5686454 145.888224,91.4123288 146.215569,91.2342466 C146.542914,91.0561644 146.838323,90.891933 147.101796,90.7415525 C147.205589,90.8127854 147.257485,90.9750381 147.257485,91.2283105 C147.393214,91.2837139 147.590818,91.3668189 147.850299,91.4776256 C148.10978,91.5884323 148.546906,91.7625571 149.161677,92 L149.161677,92 Z M141.807512,90 C141.405842,90 141.026082,89.934359 140.668232,89.8030769 C140.310381,89.6717949 140.087637,89.4379487 140,89.1015385 C140,88.7815385 140.186228,88.3712821 140.558685,87.8707692 C140.931142,87.3702564 141.442358,86.9333333 142.092332,86.56 C142.742306,86.1866667 143.46531,86 144.261346,86 C144.575378,86 145.110329,86.1271795 145.866197,86.3815385 C146.622066,86.6358974 147,86.9517949 147,87.3292308 C147,87.4358974 146.872196,87.6369231 146.616588,87.9323077 C146.360981,88.2276923 145.997653,88.5353846 145.526604,88.8553846 C145.055556,89.1753846 144.504173,89.4461538 143.872457,89.6676923 C143.240741,89.8892308 142.552426,90 141.807512,90 Z M153,92 L153,77.8195283 C153,77.1974767 152.917219,76.4890291 152.751656,75.6941854 C152.586093,74.8993417 152.300957,74.0814591 151.896247,73.2405376 C151.491538,72.399616 150.976453,71.6527702 150.350993,71 L150.350993,71 L148,71 C148.0883,71.0998354 148.321928,71.372463 148.700883,71.8178826 C149.079838,72.2633022 149.433039,72.75096 149.760486,73.2808557 C150.087932,73.8107515 150.384106,74.4750411 150.649007,75.2737246 C150.913907,76.0724081 151.064753,76.928689 151.101545,77.8425672 L151.101545,77.8425672 L151.101545,91.0323642 C151.12362,91.0323642 151.248712,91.0918815 151.476821,91.2109161 C151.70493,91.3299506 151.925681,91.4470653 152.139073,91.56226 C152.352465,91.6774547 152.541943,91.7792101 152.707506,91.8675261 C152.873068,91.955842 152.970567,92 153,92 L153,92 Z M155,80 L155,79 L154,79 L154,80 L155,80 Z M151,80 L151,79 L150,79 L150,80 L151,80 Z M83.0453515,125 C83.4913076,124.002967 84.1092215,123.136499 84.899093,122.400593 C85.6889645,121.664688 86.5544218,121.098912 87.4954649,120.703264 C88.4365079,120.307616 89.3151927,120.109792 90.1315193,120.109792 C90.675737,120.109792 91.185941,120.192878 91.6621315,120.35905 C92.138322,120.525223 92.6938776,120.774481 93.3287982,121.106825 C93.9637188,121.439169 94.4493575,121.672601 94.7857143,121.807122 C95.1220711,121.941642 95.5132275,122.008902 95.9591837,122.008902 C96.5563114,122.008902 97.0457294,121.858556 97.4274376,121.557864 C97.8091459,121.257171 98,120.671612 98,119.801187 C98,119.397626 97.9130763,118.772502 97.739229,117.925816 C97.5653817,117.07913 97.2346939,116.29179 96.7471655,115.563798 C96.2596372,114.835806 95.5888133,114.47181 94.7346939,114.47181 C94.1904762,114.495549 93.6386999,114.604352 93.0793651,114.79822 C92.5200302,114.992087 91.9077853,115.259149 91.2426304,115.599407 C90.5774754,115.939664 90.0767196,116.181009 89.7403628,116.323442 C89.404006,116.465875 89.0770975,116.537092 88.7596372,116.537092 C88.6235828,116.537092 88.4251701,116.465875 88.1643991,116.323442 C87.9036281,116.181009 87.7619048,115.95549 87.739229,115.646884 C87.739229,115.464886 87.8450491,115.239367 88.0566893,114.970326 C88.2683296,114.701286 88.633031,114.457962 89.1507937,114.240356 C89.6685563,114.02275 90.3356009,113.913947 91.1519274,113.913947 C92.3461829,113.913947 93.287226,113.751731 93.9750567,113.4273 C94.6628874,113.102868 95.0068027,112.414441 95.0068027,111.362018 C95.0068027,111.092977 94.978458,110.863501 94.9217687,110.673591 C94.8650794,110.48368 94.7951625,110.305638 94.7120181,110.139466 C94.6288738,109.973294 94.5873016,109.886251 94.5873016,109.878338 C94.5873016,109.759644 94.6685563,109.652819 94.8310658,109.557864 C94.9935752,109.462908 95.1088435,109.41543 95.1768707,109.41543 C95.4489796,109.41543 95.6625094,109.591494 95.8174603,109.94362 C95.9724112,110.295747 96.0574452,110.653808 96.0725624,111.017804 L96.0725624,111.017804 L97.2630385,109.593472 C97.2025699,109.332344 97.0740741,109.071217 96.877551,108.810089 C96.681028,108.548961 96.4618292,108.341246 96.2199546,108.186944 C95.9780801,108.032641 95.7437642,107.95549 95.5170068,107.95549 C95.2222222,107.995054 95.0181406,108.074184 94.9047619,108.192878 C94.7913832,108.311573 94.6439909,108.493571 94.462585,108.738872 C94.2811791,108.984174 94.122449,109.106825 93.9863946,109.106825 C93.8730159,109.059347 93.7955404,108.956479 93.7539683,108.79822 C93.7123961,108.63996 93.6878307,108.513353 93.6802721,108.418398 L93.6802721,108.418398 L93.6802721,106.424332 L97.7052154,106.424332 L97.7052154,105 L86.0498866,105 L86.0498866,106.424332 L91.9229025,106.424332 L91.9229025,107.74184 C91.9153439,107.773492 91.8945578,107.815035 91.8605442,107.866469 C91.8265306,107.917903 91.7906274,107.947577 91.7528345,107.95549 C90.5434618,107.95549 89.5325019,108.161227 88.7199546,108.5727 C87.9074074,108.984174 87.4973545,109.688427 87.4897959,110.68546 C87.4897959,111.001978 87.5313681,111.274975 87.6145125,111.504451 C87.6976568,111.733927 87.8110355,111.95549 87.9546485,112.169139 C88.0982615,112.382789 88.2834467,112.655786 88.5102041,112.988131 L88.5102041,112.988131 L88.4875283,113.118694 C88.026455,113.166172 87.5937264,113.371909 87.1893424,113.735905 C86.7849584,114.099901 86.5827664,114.459941 86.5827664,114.816024 C86.5827664,115.203759 86.7755102,115.642928 87.1609977,116.133531 C87.5464853,116.624135 87.9943311,117.041543 88.5045351,117.385757 C89.0147392,117.72997 89.4474679,117.902077 89.8027211,117.902077 C90.12774,117.902077 90.4981104,117.828882 90.9138322,117.682493 C91.329554,117.536103 91.8492063,117.324431 92.4727891,117.047478 C93.0963719,116.770524 93.6216931,116.556874 94.0487528,116.406528 C94.4758125,116.256182 94.8518519,116.181009 95.1768707,116.181009 C95.5699169,116.181009 95.9157218,116.283877 96.2142857,116.489614 C96.5128496,116.695351 96.7433862,116.968348 96.9058957,117.308605 C97.0684051,117.648863 97.1496599,118.008902 97.1496599,118.388724 C97.1496599,118.736894 97.0192744,119.10089 96.7585034,119.480712 C96.4977324,119.860534 96.1519274,120.171118 95.7210884,120.412463 C95.2902494,120.653808 94.8442933,120.774481 94.38322,120.774481 C93.9826153,120.774481 93.404384,120.50544 92.6485261,119.967359 C91.8926682,119.429278 91.2747543,119.031652 90.7947846,118.774481 C90.3148148,118.51731 89.6515495,118.388724 88.8049887,118.388724 C87.6636432,118.388724 86.648904,118.717112 85.760771,119.373887 C84.8726379,120.030663 84.1904762,120.83185 83.7142857,121.777448 C83.2380952,122.723046 83,123.59545 83,124.394659 C83,124.671612 83.0151172,124.873393 83.0453515,125 Z M90.6431925,113 C90.1111111,112.993074 89.7042254,112.825108 89.4225352,112.496104 C89.1408451,112.1671 89,111.874459 89,111.618182 C89,111.230303 89.1701878,110.830303 89.5105634,110.418182 C89.850939,110.006061 90.2871674,109.666667 90.8192488,109.4 C91.3513302,109.133333 91.9068858,109 92.4859155,109 C93.4953052,109 94,109.419048 94,110.257143 C94,110.790476 93.8004695,111.264935 93.4014085,111.680519 C93.0023474,112.096104 92.5289515,112.419913 91.9812207,112.651948 C91.4334898,112.883983 90.9874804,113 90.6431925,113 Z M104.770384,118 C105.542643,118 106.299906,117.916129 107.042174,117.748387 C107.784442,117.580645 108.552952,117.229186 109.347704,116.694009 L109.347704,116.694009 L109.347704,113.662673 C108.672915,114.693088 107.842549,115.525806 106.856607,116.160829 C105.870665,116.795853 104.729147,117.113364 103.432052,117.113364 C102.787254,117.113364 102.20806,116.967588 101.69447,116.676037 C101.180881,116.384485 100.924086,116.007066 100.924086,115.543779 C100.924086,114.984639 101.203374,114.58126 101.761949,114.333641 C102.320525,114.086022 102.952202,113.940246 103.656982,113.896313 C104.361762,113.852381 104.984067,113.822427 105.523899,113.806452 L105.523899,113.806452 L105.523899,112.704147 C105.418932,112.712135 105.194002,112.726114 104.84911,112.746083 C104.504217,112.766052 104.260544,112.776037 104.118088,112.776037 C102.41612,112.776037 101.565136,112.456528 101.565136,111.817512 C101.587629,111.210445 101.985005,110.763134 102.757263,110.475576 C103.529522,110.188018 104.245548,110.04424 104.905342,110.04424 C105.87254,110.04424 106.802249,110.207988 107.69447,110.535484 L107.69447,110.535484 L107.69447,109.121659 C107.656982,109.089708 107.570759,109.039785 107.435801,108.971889 C107.300843,108.903994 107.132146,108.846083 106.929709,108.798157 L106.929709,108.798157 L106.929709,106.437788 L110,106.437788 L110,105 L98,105 L98,106.437788 L105.208997,106.437788 L105.208997,108.378802 C104.661668,108.378802 104.076851,108.414747 103.454545,108.486636 C102.83224,108.558525 102.221181,108.686329 101.621368,108.870046 C101.021556,109.053763 100.521087,109.323349 100.119963,109.678802 C99.7188379,110.034255 99.5182755,110.475576 99.5182755,111.002765 C99.5182755,111.274347 99.5782568,111.494009 99.6982193,111.661751 C99.8181818,111.829493 99.977507,111.973272 100.176195,112.093088 C100.374883,112.212903 100.62418,112.36467 100.924086,112.548387 C100.354264,112.835945 99.8500469,113.159447 99.4114339,113.518894 C98.972821,113.878341 98.7535145,114.365591 98.7535145,114.980645 C98.7535145,115.587711 99.0927835,116.120891 99.7713215,116.580184 C100.449859,117.039478 101.263355,117.390937 102.211809,117.634562 C103.160262,117.878187 104.013121,118 104.770384,118 Z M115.435233,118 C115.404145,117.922481 115.118523,117.645349 114.578368,117.168605 C114.038212,116.69186 113.585492,116.257752 113.220207,115.866279 C112.854922,115.474806 112.512953,115.007752 112.194301,114.465116 C111.875648,113.922481 111.716321,113.360465 111.716321,112.77907 C111.716321,112.25969 111.879534,111.742248 112.205959,111.226744 C112.532383,110.71124 112.977332,110.286822 113.540803,109.953488 C114.104275,109.620155 114.704663,109.453488 115.341969,109.453488 C115.629534,109.453488 115.963731,109.492248 116.34456,109.569767 C116.725389,109.647287 116.915803,109.790698 116.915803,110 C116.915803,110.015504 116.81671,110.182171 116.618523,110.5 C116.420337,110.817829 116.245466,111.166667 116.093912,111.546512 C115.942358,111.926357 115.86658,112.306202 115.86658,112.686047 C116.224093,112.833333 116.698187,113.02907 117.28886,113.273256 C117.879534,113.517442 118.202073,113.647287 118.256477,113.662791 C118.512953,112.391473 119.012306,111.362403 119.754534,110.575581 C120.496762,109.78876 121.540155,109.356589 122.884715,109.27907 C123.32772,109.27907 123.74158,109.346899 124.126295,109.482558 C124.51101,109.618217 124.823834,109.819767 125.064767,110.087209 C125.305699,110.354651 125.426166,110.689922 125.426166,111.093023 C125.426166,111.875969 125.107513,112.618217 124.470207,113.319767 C123.832902,114.021318 123.067358,114.593023 122.173575,115.034884 C121.279793,115.476744 120.467617,115.717054 119.737047,115.755814 C120.071244,116.096899 120.500648,116.523256 121.025259,117.034884 C121.54987,117.546512 121.870466,117.802326 121.987047,117.802326 C122.049223,117.802326 122.313472,117.668605 122.779793,117.401163 C123.246114,117.133721 123.737694,116.76938 124.254534,116.30814 C124.771373,115.846899 125.22215,115.25969 125.606865,114.546512 C125.99158,113.833333 126.183938,113.046512 126.183938,112.186047 C126.183938,111.03876 125.941062,110.153101 125.455311,109.52907 C124.96956,108.905039 124.209845,108.403101 123.176166,108.023256 L123.176166,108.023256 L123.15285,106.395349 L127,106.395349 L127,105 L109,105 L109,106.395349 L121.124352,106.395349 L121.101036,107.976744 C120.790155,108.023256 120.411269,108.127907 119.964378,108.290698 C119.517487,108.453488 119.084197,108.631783 118.664508,108.825581 C118.244819,109.01938 118.031088,109.116279 118.023316,109.116279 C117.984456,109.116279 117.757124,108.992248 117.341321,108.744186 C116.925518,108.496124 116.468912,108.281008 115.971503,108.098837 C115.474093,107.916667 114.906736,107.825581 114.26943,107.825581 C113.468912,107.825581 112.689767,108.00969 111.931995,108.377907 C111.174223,108.746124 110.554404,109.261628 110.072539,109.924419 C109.590674,110.587209 109.349741,111.341085 109.349741,112.186047 C109.349741,112.922481 109.569301,113.612403 110.00842,114.255814 C110.447539,114.899225 111.001295,115.474806 111.669689,115.982558 C112.338083,116.49031 113.00842,116.910853 113.680699,117.244186 C114.352979,117.577519 114.937824,117.829457 115.435233,118 Z M135.953488,121 C136.403101,121 136.746124,120.960347 136.982558,120.881041 C137.218992,120.801735 137.368217,120.734325 137.430233,120.67881 L137.430233,120.67881 L136.255814,118.715985 C136.069767,118.763569 135.895349,118.787361 135.732558,118.787361 C135.228682,118.787361 134.697674,118.501859 134.139535,117.930855 C134.72093,117.891202 135.331395,117.722677 135.97093,117.425279 C136.610465,117.127881 137.158915,116.717472 137.616279,116.194052 C138.073643,115.670632 138.302326,115.087732 138.302326,114.445353 C138.302326,113.906072 138.141473,113.430235 137.819767,113.017844 C137.498062,112.605452 137.067829,112.290211 136.52907,112.072119 C135.99031,111.854027 135.422481,111.744981 134.825581,111.744981 C134.189922,111.744981 133.707364,111.794548 133.377907,111.89368 C133.04845,111.992813 132.536822,112.171252 131.843023,112.428996 C131.149225,112.686741 130.620155,112.815613 130.255814,112.815613 C129.922481,112.815613 129.676357,112.706568 129.517442,112.488476 C129.358527,112.270384 129.27907,112.062206 129.27907,111.863941 C129.27907,111.388104 129.54845,111.005452 130.087209,110.715985 C130.625969,110.426518 131.234496,110.224287 131.912791,110.109294 C132.591085,109.9943 133.174419,109.936803 133.662791,109.936803 C134.251938,109.936803 134.965116,110.035936 135.802326,110.234201 C136.639535,110.432466 137.282946,110.666419 137.732558,110.936059 L137.732558,110.936059 L137.732558,106.427509 L139,106.427509 L139,105 L127,105 L127,106.427509 L136.255814,106.427509 L136.255814,108.449814 C135.906977,108.354647 135.401163,108.23767 134.738372,108.098885 C134.075581,107.960099 133.527132,107.890706 133.093023,107.890706 C132.44186,107.890706 131.748062,107.985874 131.011628,108.176208 C130.275194,108.366543 129.643411,108.68575 129.116279,109.133829 C128.589147,109.581908 128.325581,110.166791 128.325581,110.888476 C128.333333,111.554647 128.525194,112.169269 128.901163,112.732342 C129.277132,113.295415 129.746124,113.733581 130.30814,114.04684 C130.870155,114.360099 131.418605,114.516729 131.953488,114.516729 C132.162791,114.516729 132.728682,114.389839 133.651163,114.136059 C134.573643,113.88228 135.195736,113.711772 135.517442,113.624535 C135.839147,113.537299 136.143411,113.49368 136.430233,113.49368 C136.647287,113.49368 136.856589,113.519455 137.05814,113.571004 C137.25969,113.622553 137.437984,113.71772 137.593023,113.856506 C137.748062,113.995291 137.825581,114.175713 137.825581,114.39777 C137.825581,114.80223 137.573643,115.145229 137.069767,115.426766 C136.565891,115.708302 135.986434,115.920446 135.331395,116.063197 C134.676357,116.205948 134.151163,116.277323 133.755814,116.277323 C133.197674,116.277323 132.753876,116.217844 132.424419,116.098885 C132.094961,115.979926 131.765504,115.807435 131.436047,115.581413 C131.106589,115.35539 130.829457,115.186865 130.604651,115.075836 C130.379845,114.964808 130.081395,114.909294 129.709302,114.909294 C129.406977,114.909294 129.137597,114.986617 128.901163,115.141264 C128.664729,115.295911 128.546512,115.551673 128.546512,115.90855 C128.546512,116.447831 128.790698,116.872119 129.27907,117.181413 C129.767442,117.490706 130.296512,117.694919 130.866279,117.794052 C131.436047,117.893185 132.011628,117.954647 132.593023,117.978439 C132.817829,117.978439 133.106589,118.295663 133.459302,118.930112 C133.812016,119.56456 134.155039,120.068154 134.488372,120.440892 C134.821705,120.813631 135.310078,121 135.953488,121 Z" id="INDIANCLASSICALGEMS"></path>
                </g>
            </g>
        </g>
    </g>
</svg>