<?xml version="1.0" encoding="utf-8"?>
<!-- Generator: Adobe Illustrator 22.1.0, SVG Export Plug-In . SVG Version: 6.00 Build 0)  -->
<svg version="1.1" id="Layer_1" xmlns="http://www.w3.org/2000/svg" xmlns:xlink="http://www.w3.org/1999/xlink" x="0px" y="0px"
	 viewBox="0 0 20 20" style="enable-background:new 0 0 20 20;" xml:space="preserve">
<style type="text/css">
	.st0{fill:none;stroke:#90A4AE;stroke-linecap:round;stroke-linejoin:round;}
</style>
<g id="Home">
	<g id="navigation_x2F_mobile-menu" transform="translate(-28.000000, -324.000000)">
		<g id="settings" transform="translate(29.000000, 325.000000)">
			<circle id="Oval" class="st0" cx="8.8" cy="8.8" r="2.3"/>
			<path id="Shape" class="st0" d="M14.7,11.3c-0.2,0.5-0.1,1,0.3,1.4l0,0c0.3,0.3,0.5,0.7,0.5,1.1c0,0.4-0.2,0.8-0.5,1.1
				c-0.3,0.3-0.7,0.5-1.1,0.5c-0.4,0-0.8-0.2-1.1-0.5l0,0c-0.4-0.4-0.9-0.5-1.4-0.3c-0.5,0.2-0.8,0.7-0.8,1.2V16
				c0,0.9-0.7,1.5-1.5,1.5S7.5,16.8,7.5,16v-0.1c0-0.5-0.3-1-0.8-1.2c-0.5-0.2-1-0.1-1.4,0.3l0,0c-0.3,0.3-0.7,0.5-1.1,0.5
				c-0.4,0-0.8-0.2-1.1-0.5c-0.3-0.3-0.5-0.7-0.5-1.1c0-0.4,0.2-0.8,0.5-1.1l0,0c0.4-0.4,0.5-0.9,0.3-1.4c-0.2-0.5-0.7-0.8-1.2-0.8
				H2c-0.9,0-1.5-0.7-1.5-1.5S1.2,7.5,2,7.5h0.1c0.5,0,1-0.3,1.2-0.8c0.2-0.5,0.1-1-0.3-1.4l0,0C2.7,4.9,2.5,4.5,2.5,4.1
				C2.5,3.7,2.7,3.3,3,3c0.3-0.3,0.7-0.5,1.1-0.5c0.4,0,0.8,0.2,1.1,0.5l0,0c0.4,0.4,0.9,0.5,1.4,0.3h0.1c0.5-0.2,0.8-0.7,0.8-1.2V2
				c0-0.9,0.7-1.5,1.5-1.5s1.5,0.7,1.5,1.5v0.1c0,0.5,0.3,1,0.8,1.2c0.5,0.2,1,0.1,1.4-0.3l0,0c0.3-0.3,0.7-0.5,1.1-0.5
				c0.4,0,0.8,0.2,1.1,0.5c0.3,0.3,0.5,0.7,0.5,1.1c0,0.4-0.2,0.8-0.5,1.1l0,0c-0.4,0.4-0.5,0.9-0.3,1.4v0.1
				c0.2,0.5,0.7,0.8,1.2,0.8H16c0.9,0,1.5,0.7,1.5,1.5s-0.7,1.5-1.5,1.5h-0.1C15.4,10.5,14.9,10.9,14.7,11.3z"/>
		</g>
	</g>
</g>
</svg>
