<?xml version="1.0" encoding="UTF-8"?>
<svg width="17px" height="22px" viewBox="0 0 17 22" version="1.1" xmlns="http://www.w3.org/2000/svg" xmlns:xlink="http://www.w3.org/1999/xlink">
    <!-- Generator: sketchtool 57.1 (101010) - https://sketch.com -->
    <title>9B1370C7-FB39-4BE5-958F-6C0828B461CE</title>
    <desc>Created with sketchtool.</desc>
    <g id="Home" stroke="none" stroke-width="1" fill="none" fill-rule="evenodd">
        <g id="navigation-Mobile-Menu" transform="translate(-29.000000, -495.000000)" stroke="#90A4AE" stroke-width="0.8">
            <g id="organization-(1)" transform="translate(30.000000, 495.000000)">
                <path d="M14.531,1 C5.33269425,0.995958421 0.645360912,0.995958421 0.469,1 C0.204458632,1.00606237 0,1.149 0,1.333 L0,21 L1.875,21 L1.875,17.9999999 C1.875,17.816 2.085,17.6669999 2.344,17.6669999 L4.219,17.6669999 C4.478,17.6669999 4.688,17.816 4.688,17.9999999 L4.688,21 L15,21 L15,1.333 C15,1.149 14.79,1 14.531,1 Z M4.687,14.833 C4.687,14.925 4.587,15 4.453,15 L2.109,15 C1.98,15 1.875,14.925 1.875,14.833 L1.875,13.167 C1.875,13.075 1.975,13 2.109,13 L4.453,13 C4.582,13 4.687,13.075 4.687,13.167 L4.687,14.833 Z M4.687,10.166 C4.687,10.258 4.587,10.333 4.453,10.333 L2.109,10.333 C1.98,10.333 1.875,10.258 1.875,10.166 L1.875,8.50000002 C1.875,8.40799999 1.975,8.33300002 2.109,8.33300002 L4.453,8.33300002 C4.582,8.33300002 4.687,8.40799999 4.687,8.50000002 L4.687,10.166 Z M4.687,5.49899999 C4.687,5.59099999 4.587,5.66599999 4.453,5.66599999 L2.109,5.66599999 C1.98,5.66599999 1.875,5.59099999 1.875,5.49899999 L1.875,3.83299999 C1.875,3.74099999 1.975,3.66599999 2.109,3.66599999 L4.453,3.66599999 C4.582,3.66599999 4.687,3.74099999 4.687,3.83299999 L4.687,5.49899999 Z M8.906,14.832 C8.906,14.924 8.806,14.999 8.672,14.999 L6.328,14.999 C6.199,14.999 6.094,14.924 6.094,14.832 L6.094,13.167 C6.094,13.075 6.194,13 6.328,13 L8.672,13 C8.801,13 8.906,13.075 8.906,13.167 L8.906,14.832 Z M8.906,10.165 C8.906,10.257 8.806,10.332 8.672,10.332 L6.328,10.332 C6.199,10.332 6.094,10.257 6.094,10.165 L6.094,8.50000002 C6.094,8.40799999 6.194,8.33300002 6.328,8.33300002 L8.672,8.33300002 C8.801,8.33300002 8.906,8.40799999 8.906,8.50000002 L8.906,10.165 Z M8.906,5.49799999 C8.906,5.58999999 8.806,5.66499999 8.672,5.66499999 L6.328,5.66499999 C6.199,5.66499999 6.094,5.58999999 6.094,5.49799999 L6.094,3.83299999 C6.094,3.74099999 6.194,3.66599999 6.328,3.66599999 L8.672,3.66599999 C8.801,3.66599999 8.906,3.74099999 8.906,3.83299999 L8.906,5.49799999 Z M13.125,14.831 C13.125,14.9229999 13.025,14.998 12.891,14.998 L10.547,14.998 C10.418,14.998 10.313,14.9229999 10.313,14.831 L10.313,13.167 C10.313,13.075 10.413,13 10.547,13 L12.891,13 C13.02,13 13.125,13.075 13.125,13.167 L13.125,14.831 Z M13.125,10.164 C13.125,10.256 13.025,10.3309999 12.891,10.3309999 L10.547,10.3309999 C10.418,10.3309999 10.313,10.256 10.313,10.164 L10.313,8.50000002 C10.313,8.40799999 10.413,8.33300002 10.547,8.33300002 L12.891,8.33300002 C13.02,8.33300002 13.125,8.40799999 13.125,8.50000002 L13.125,10.164 Z M13.125,5.49699999 C13.125,5.58899999 13.025,5.66399999 12.891,5.66399999 L10.547,5.66399999 C10.418,5.66399999 10.313,5.58899999 10.313,5.49699999 L10.313,3.83299999 C10.313,3.74099999 10.413,3.66599999 10.547,3.66599999 L12.891,3.66599999 C13.02,3.66599999 13.125,3.74099999 13.125,3.83299999 L13.125,5.49699999 Z" id="Path_96"></path>
            </g>
        </g>
    </g>
</svg>