<?xml version="1.0" encoding="UTF-8"?>
<svg width="17px" height="16px" viewBox="0 0 17 16" version="1.1" xmlns="http://www.w3.org/2000/svg" xmlns:xlink="http://www.w3.org/1999/xlink">
    <!-- Generator: sketchtool 57.1 (101010) - https://sketch.com -->
    <title>324BE663-D690-4A74-8273-8890FDDC0D63</title>
    <desc>Created with sketchtool.</desc>
    <g id="Home" stroke="none" stroke-width="1" fill="none" fill-rule="evenodd">
        <g id="navigation-Mobile-Menu" transform="translate(-29.000000, -325.000000)" fill="#90A4AE" fill-rule="nonzero">
            <g id="portfolio" transform="translate(29.000000, 325.000000)">
                <path d="M6.18181818,0.00278769584 C5.32872727,0.00278769584 4.63636364,-0.108126309 4.63636364,1.06926852 L4.63636364,2.81586652 C4.63636364,3.02924927 4.80934453,3.20223016 5.02272727,3.20223016 C5.23611002,3.20223016 5.40909091,3.02924927 5.40909091,2.81586652 L5.40909091,1.60250892 L5.40909091,1.60250892 C5.40909091,1.30816022 5.58218182,1.06926852 5.79545455,1.06926852 L11.2045455,1.06926852 C11.4178182,1.06926852 11.5909091,1.30816022 11.5909091,1.60250892 L11.5909091,2.81586652 C11.5909091,3.02924927 11.76389,3.20223016 11.9772727,3.20223016 C12.1906555,3.20223016 12.3636364,3.02924927 12.3636364,2.81586652 L12.3636364,1.06926852 L12.3636364,1.06926852 C12.3636364,-0.108126309 11.6712727,0.00278769584 10.8181818,0.00278769584 L6.18181818,0.00278769584 Z M15.7223515,9.67804789 L15.084902,14.0769328 C15.0136418,14.5686826 14.5921253,14.9335192 14.0952392,14.9335192 L2.90553353,14.9335192 C2.4086474,14.9335192 1.98713094,14.5686826 1.91587069,14.0769328 L1.27842119,9.67804789 C1.19921602,9.1314722 1.57809469,8.62417659 2.12467038,8.54497142 C2.17216496,8.53808891 2.22009336,8.53463426 2.26808402,8.53463426 L14.7326887,8.53463426 C15.2849735,8.53463426 15.7326887,8.98234951 15.7326887,9.53463426 C15.7326887,9.58262492 15.7292341,9.63055332 15.7223515,9.67804789 Z M15.8025871,7.46815344 L1.19741287,7.46815344 C0.645128116,7.46815344 0.197412866,7.91586869 0.197412866,8.46815344 C0.197412866,8.52792559 0.202771909,8.58757738 0.213425635,8.64639241 L1.54545455,16 L1.54545455,16 L15.4545455,16 L16.7865744,8.64639241 C16.885013,8.10295127 16.5242672,7.58260487 15.9808261,7.48416621 C15.9220111,7.47351248 15.8623593,7.46815344 15.8025871,7.46815344 Z M17,5.26871098 L17,5.62894534 C17,6.05571083 16.6540382,6.40167261 16.2272727,6.40167261 C15.8005072,6.40167261 15.4545455,6.05571083 15.4545455,5.62894534 L15.4545455,5.3351918 L15.4545455,5.3351918 L1.54545455,5.3351918 L1.54545455,5.62894534 C1.54545455,6.05571083 1.19949276,6.40167261 0.772727273,6.40167261 C0.345961784,6.40167261 5.22636989e-17,6.05571083 0,5.62894534 L0,5.26871098 C-6.76353751e-17,4.71642623 0.44771525,4.26871098 1,4.26871098 L16,4.26871098 C16.5522847,4.26871098 17,4.71642623 17,5.26871098 Z" id="Shape"></path>
            </g>
        </g>
    </g>
</svg>