<?xml version="1.0" encoding="UTF-8"?>
<svg width="21px" height="18px" viewBox="0 0 21 18" version="1.1" xmlns="http://www.w3.org/2000/svg" xmlns:xlink="http://www.w3.org/1999/xlink">
    <!-- Generator: sketchtool 57.1 (101010) - https://sketch.com -->
    <title>79ADC4E8-7203-4CB6-AF5D-F7D35B686FD0</title>
    <desc>Created with sketchtool.</desc>
    <g id="Home" stroke="none" stroke-width="1" fill="none" fill-rule="evenodd">
        <g id="navigation-Mobile-Menu" transform="translate(-28.000000, -195.000000)" fill="#90A4AE" fill-rule="nonzero" stroke="#90A4AE" stroke-width="0.2">
            <g id="wallet-(1)" transform="translate(29.000000, 196.000000)">
                <path d="M18.2508163,11.1979407 L18.2508163,14.5775992 C18.2508163,15.4276269 17.6019591,16.1 16.7781633,16.1 L1.33387755,16.1 C0.542462239,16.1 -0.1,15.4209387 -0.1,14.5775992 L-0.1,1.4224008 C-0.1,0.622498051 0.48331773,-0.0382194119 1.23693878,-0.1 C1.88610544,-0.1 1.88610544,-0.1 5.12418368,-0.1 C9.65671769,-0.1 9.65671769,-0.1 16.7781633,-0.1 C17.5695786,-0.1 18.2120408,0.579061312 18.2120408,1.4224008 L18.2120408,4.71366148 L18.5967347,4.71366148 C18.867472,4.71366148 19.1,4.9407155 19.1,5.23556002 L19.1,10.6800603 C19.1,10.9849229 18.8958404,11.1979407 18.5967347,11.1979407 L18.2508163,11.1979407 Z M17.2442857,11.1979407 L13.3,11.1979407 C11.5711073,11.1979407 10.1677551,9.75652936 10.1677551,7.9558011 C10.1677551,6.1414339 11.5455919,4.71366148 13.3,4.71366148 L17.2016327,4.71366148 L17.2016327,1.4224008 C17.2016327,1.13352327 16.9920657,0.895580111 16.7355102,0.895580111 L1.33387755,0.895580111 C1.07732205,0.895580111 0.867755102,1.13352325 0.867755102,1.4224008 L0.867755102,14.5775992 C0.867755102,14.8664767 1.07732204,15.1044199 1.33387755,15.1044199 L16.7781633,15.1044199 C17.0347188,15.1044199 17.2442857,14.8664767 17.2442857,14.5775992 L17.2442857,11.1979407 Z M18.0895918,10.2023607 L18.0895918,5.79763938 L13.3,5.79763938 C12.1462448,5.79763938 11.1781633,6.80080618 11.1781633,8 C11.1781633,9.20060153 12.1437272,10.2023607 13.3,10.2023607 L18.0895918,10.2023607 Z" id="Shape"></path>
            </g>
        </g>
    </g>
</svg>