<?xml version="1.0" encoding="UTF-8"?>
<svg width="12px" height="11px" viewBox="0 0 12 11" version="1.1" xmlns="http://www.w3.org/2000/svg" xmlns:xlink="http://www.w3.org/1999/xlink">
    <!-- Generator: sketchtool 51.3 (57544) - http://www.bohemiancoding.com/sketch -->
    <title>BCB698B1-6BB7-469F-8DEC-07DA72B7F3D9</title>
    <desc>Created with sketchtool.</desc>
    <defs></defs>
    <g id="Home" stroke="none" stroke-width="1" fill="none" fill-rule="evenodd">
        <g id="home" transform="translate(-729.000000, -432.000000)" fill="#90A4AE" fill-rule="nonzero">
            <g id="icons/coins" transform="translate(729.000000, 432.000000)">
                <g id="coins">
                    <path d="M11.9978,3.51999991 C11.978,3.18540436 11.571,2.92394659 10.757,2.72447993 C10.7844,2.66581326 10.7998,2.60479993 10.8,2.54143993 L10.8,1.1733333 L10.7966,1.1733333 C10.725,0.0336355547 5.9486,0 5.4,0 C4.8514,0 0.075,0.0336355547 0.0034,1.1733333 L0,1.1733333 L0,1.19875552 L0,2.5420266 C0.001,2.91358215 0.4914,3.20437325 1.221,3.42085324 C1.211,3.45331546 1.205,3.48636435 1.203,3.51999991 L1.2,3.51999991 L1.2,3.54542213 L1.2,4.88634654 C0.414,5.08424875 0.0214,5.34199097 0.002,5.67111096 L0,5.67111096 L0,5.69653318 L0,7.03980426 C0.0006,7.29852425 0.2392,7.51793758 0.6296,7.70078202 C0.6148,7.74047979 0.6056,7.78095979 0.603,7.82241757 L0.6,7.82241757 L0.6,7.84783979 L0.6,9.19111087 C0.6016,9.84152863 2.0994,10.2453508 3.7636,10.4338664 C3.7758,10.4362131 3.787,10.4411019 3.8,10.4411019 C3.8038,10.4411019 3.807,10.4391464 3.8108,10.4389508 C4.1316,10.4743464 4.4576,10.5019197 4.7802,10.5216708 C4.787,10.5224531 4.793,10.5255819 4.8,10.5255819 C4.8038,10.5255819 4.8068,10.5236264 4.8104,10.5234308 C5.22,10.5476797 5.623,10.5599997 6,10.5599997 C6.377,10.5599997 6.78,10.5476797 7.1896,10.5232353 C7.1932,10.5234308 7.1964,10.5253864 7.2,10.5253864 C7.207,10.5253864 7.213,10.5220619 7.2198,10.5214753 C7.5424,10.5017242 7.8684,10.4743464 8.1892,10.4387553 C8.193,10.4387553 8.1962,10.4407108 8.2,10.4407108 C8.213,10.4407108 8.2242,10.4358219 8.2364,10.4334753 C9.9006,10.2449597 11.3982,9.84094196 11.4,9.19032865 L11.4,7.82222202 L11.3968,7.82222202 C11.3828,7.58247091 11.1738,7.38241758 10.761,7.21521759 C10.7862,7.15870203 10.8,7.10003537 10.8,7.03921759 L10.8,5.76106651 C11.518,5.54517319 11.999,5.25633764 12,4.88810654 L12,3.51999991 L11.9978,3.51999991 Z M10.3784,7.10277316 L10.3102,7.16124427 C10.2052,7.25178649 10.0302,7.34311093 9.79999995,7.43111093 L9.79999995,6.49870207 C10.0378,6.41774207 10.2402,6.32798207 10.4,6.22961763 L10.4,7.0388265 C10.4,7.05896872 10.3924,7.08047983 10.3784,7.10277316 Z M5.90519995,8.01152001 C5.87599995,8.01230223 5.84659995,8.01269334 5.81719995,8.01328001 C5.74579995,8.0146489 5.67259994,8.01504001 5.60019994,8.01562668 L5.60019994,7.03882665 C5.65519994,7.03823998 5.71019994,7.03745776 5.76519995,7.03647998 C5.77579995,7.03628442 5.78639995,7.03608887 5.79699995,7.03589331 C5.99839996,7.03217776 6.19979997,7.02611554 6.40019998,7.01711998 L6.40019998,7.9935289 C6.35739998,7.99568001 6.31439998,7.99763557 6.27099997,7.99939557 C6.15059997,8.00467557 6.02899996,8.00858668 5.90519995,8.01152001 Z M5.03180004,8.01425806 C4.94020004,8.01269362 4.84900003,8.01054251 4.75840003,8.00780473 C4.74720003,8.00741362 4.73600003,8.00702251 4.72480002,8.0066314 C4.61580002,8.0031114 4.50760001,7.99861362 4.40020001,7.99352917 L4.40020001,7.0173158 C4.60060002,7.02650691 4.80200003,7.03256913 5.00340004,7.03608914 C5.01400004,7.03628469 5.02460004,7.03648025 5.03500004,7.0366758 C5.09000004,7.03765358 5.14500005,7.0384358 5.20000005,7.03902247 L5.20000005,8.01640917 C5.16120005,8.01601806 5.12240004,8.01601806 5.08380004,8.0154314 C5.06620004,8.01504029 5.04920004,8.01445362 5.03180004,8.01425806 Z M1.41940001,7.56839133 C1.41280001,7.56643578 1.40660001,7.56467578 1.40000001,7.56291578 L1.40000001,6.61818689 C1.58680001,6.66746689 1.78760001,6.71244466 2.00000001,6.75331578 L2.00000001,7.70782244 C1.81640001,7.66968911 1.64700001,7.62960022 1.49280001,7.58853355 C1.46840001,7.58168911 1.44320001,7.57523578 1.41940001,7.56839133 Z M5.63499991,9.18778653 C5.68999992,9.1887643 5.74499992,9.18954653 5.79999992,9.19013319 L5.79999992,10.1677155 C5.52359991,10.1651732 5.25679989,10.157351 4.99999988,10.145031 L4.99999988,9.16862208 C5.20039989,9.17781319 5.4017999,9.18387541 5.60319991,9.18739541 C5.61379991,9.18739541 5.62439991,9.18759097 5.63499991,9.18778653 Z M6.39679982,9.18720029 C6.59819983,9.18348474 6.79959984,9.17742251 6.99999985,9.16842696 L6.99999985,10.1448359 C6.74319984,10.1571559 6.47639982,10.1649781 6.19999981,10.1675203 L6.19999981,9.18993807 C6.25499981,9.1893514 6.30999982,9.18856918 6.36499982,9.1875914 C6.37559982,9.1875914 6.38619982,9.18739585 6.39679982,9.18720029 Z M8.0000001,9.09880905 L8.0000001,10.0699379 C7.8078001,10.0896891 7.6078001,10.1070935 7.4000001,10.1213691 L7.4000001,9.1461335 C7.6028001,9.13322683 7.8032001,9.11738683 8.0000001,9.09880905 Z M8.39999986,9.05656886 C8.60619986,9.03231998 8.80639986,9.00474664 8.99999987,8.97404442 L8.99999987,9.93422222 C8.81159986,9.96668444 8.61139986,9.99660444 8.39999986,10.0237867 L8.39999986,9.05656886 Z M9.40000033,8.90423111 C9.61240034,8.86336 9.81320034,8.81838222 10.0000003,8.76910222 L10.0000003,9.71383111 C9.82180034,9.76408889 9.62120034,9.81278222 9.40000033,9.85873778 L9.40000033,8.90423111 Z M2.60000007,8.90423111 L2.60000007,9.85873778 C2.37880007,9.81278222 2.17820006,9.76408889 2.00000006,9.71383111 L2.00000006,8.76910222 C2.18680006,8.81838222 2.38760007,8.86355556 2.60000007,8.90423111 Z M3,8.97424024 C3.1936,9.00494246 3.39380001,9.0325158 3.60000001,9.05676469 L3.60000001,10.0239825 C3.38860001,9.99680026 3.1884,9.96688026 3,9.93441804 L3,8.97424024 Z M4.00000012,9.09880905 C4.19680012,9.11738683 4.39720013,9.13322683 4.60000013,9.14632905 L4.60000013,10.1215646 C4.39220013,10.1072891 4.19220012,10.0898846 4.00000012,10.0701335 L4.00000012,9.09880905 Z M3.50379998,7.92938634 C3.48339998,7.92743078 3.46319998,7.92527967 3.44299998,7.92332412 C3.42859998,7.92195523 3.41439998,7.92019523 3.39999998,7.91882634 L3.39999998,6.94789302 C3.59679998,6.96647079 3.79719998,6.98231079 3.99999999,6.99541302 L3.99999999,7.96986634 C3.83199998,7.95813301 3.66599998,7.94483523 3.50379998,7.92938634 Z M3.00000004,6.90545771 L3.00000004,7.87267551 C2.78860004,7.84549328 2.58840004,7.81557328 2.40000004,7.78311106 L2.40000004,6.82293326 C2.59360004,6.85363548 2.79380004,6.88140437 3.00000004,6.90545771 Z M6.93319995,7.96067568 C6.88919995,7.96400012 6.84479995,7.96732456 6.79999995,7.97045345 L6.79999995,6.99521789 C7.00279996,6.98211567 7.20319996,6.96647123 7.39999996,6.94769789 L7.39999996,7.91882679 C7.27639996,7.9315379 7.14999996,7.94346679 7.02019996,7.95383123 C6.99119996,7.95637345 6.96219995,7.95852456 6.93319995,7.96067568 Z M7.79999971,7.87267551 L7.79999971,6.90545771 C8.00619972,6.88120882 8.20639972,6.85363548 8.39999972,6.82293326 L8.39999972,7.78311106 C8.21159972,7.81557328 8.01139972,7.84568884 7.79999971,7.87267551 Z M8.80000019,6.75311995 C9.01240019,6.71224884 9.2132002,6.66727107 9.4000002,6.61799107 L9.4000002,7.56271995 C9.2218002,7.61297773 9.02120019,7.66167107 8.80000019,7.70762662 L8.80000019,6.75311995 Z M6.06500005,5.85982209 C5.91460004,5.85610654 5.76760003,5.85043543 5.62320002,5.84359098 C5.61540002,5.84319987 5.60760002,5.84280876 5.60000002,5.84261321 L5.60000002,4.86620429 C5.80040003,4.8753954 6.00180004,4.88145763 6.20320005,4.88497763 C6.21380005,4.88517318 6.22440005,4.88536874 6.23480005,4.88556429 C6.28980006,4.88654207 6.34480006,4.88732429 6.39980006,4.88791096 L6.39980006,5.86431987 C6.30240006,5.8633421 6.20420005,5.86295098 6.10920005,5.86079987 C6.09460005,5.86040876 6.07960005,5.86021321 6.06500005,5.85982209 Z M1.40000001,3.06513774 L1.40000001,2.12040885 C1.58680001,2.16968885 1.78760001,2.21466663 2.00000001,2.25553774 L2.00000001,3.21004441 C1.97540001,3.20495996 1.95000001,3.19987552 1.92600001,3.19479107 C1.81960001,3.17191107 1.71580001,3.1480533 1.61660001,3.12282663 C1.54100001,3.10385774 1.46920001,3.08449774 1.40000001,3.06513774 Z M5.03500013,2.53889786 C5.09000013,2.53987564 5.14500013,2.54065786 5.20000014,2.54124452 L5.20000014,3.51765343 C4.93080012,3.51511121 4.66320011,3.50826677 4.4000001,3.4953601 L4.4000001,2.51973341 C4.60040011,2.52892452 4.80180012,2.53498675 5.00320013,2.53850675 C5.01380013,2.53850675 5.02440013,2.5387023 5.03500013,2.53889786 Z M5.79680003,2.5383111 C5.99820004,2.53459555 6.19960006,2.52853332 6.40000007,2.51953777 L6.40000007,3.49516446 C6.36600006,3.49672891 6.33340006,3.49907557 6.29920006,3.50064002 C6.29640006,3.50083557 6.29360006,3.50083557 6.29060006,3.50103113 C6.15640005,3.5068978 6.01960005,3.51120002 5.88100004,3.51432891 C5.85940004,3.51491557 5.83780004,3.51511113 5.81620004,3.5156978 C5.74500003,3.51706669 5.67220003,3.51726224 5.60000002,3.51804446 L5.60000002,2.54124443 C5.65500003,2.54065777 5.71000003,2.53987555 5.76500003,2.53889777 C5.77560003,2.53870221 5.78620003,2.53850666 5.79680003,2.5383111 Z M10.3542,2.63648004 L10.3486,2.63530671 L10.2758,2.69064893 C10.1702,2.77102227 10.008,2.85237338 9.79999995,2.93098671 L9.79999995,2.00072892 C10.0378,1.91976892 10.2402,1.83000892 10.4,1.73164447 L10.4,2.54085337 C10.4,2.57057782 10.384,2.60264893 10.3542,2.63648004 Z M7.79999971,3.37372447 L7.79999971,2.40768002 C8.00619972,2.38343113 8.20639972,2.3558578 8.39999972,2.32515558 L8.39999972,3.28376891 C8.21039972,3.31662225 8.01079972,3.3467378 7.79999971,3.37372447 Z M8.80000019,3.20847994 L8.80000019,2.25553774 C9.01240019,2.21466663 9.2132002,2.16968885 9.4000002,2.12040885 L9.4000002,3.06298661 C9.2208002,3.11402661 9.01900019,3.16271994 8.80000019,3.20847994 Z M7.39999996,2.44992003 L7.39999996,3.41987558 C7.20679996,3.43982224 7.00679996,3.45722669 6.79999995,3.4716978 L6.79999995,2.49744003 C7.00279996,2.48433781 7.20319996,2.46849781 7.39999996,2.44992003 Z M3.39999998,3.42026668 L3.39999998,2.44992003 C3.59679998,2.46849781 3.79719998,2.48433781 3.99999999,2.49744003 L3.99999999,3.47091556 C3.79639998,3.45664001 3.59559998,3.4404089 3.39999998,3.42026668 Z M3.00000004,2.40767994 L3.00000004,3.37391994 C2.96040004,3.3688355 2.91920004,3.36472883 2.88000004,3.35944883 C2.85440004,3.35592883 2.83000004,3.35221327 2.80480004,3.34869327 C2.68920004,3.33246216 2.57620004,3.31505772 2.46540004,3.29687105 C2.44320004,3.2931555 2.42180004,3.28924438 2.40000004,3.28552883 L2.40000004,2.32535105 C2.59360004,2.35585771 2.79380004,2.3836266 3.00000004,2.40767994 Z M5.15039991,5.81562673 C5.12339991,5.81367117 5.09619991,5.81171562 5.06939991,5.80976006 C4.94139991,5.79998229 4.81639991,5.78922673 4.69439991,5.77729784 C4.66819991,5.77475562 4.64199991,5.77201784 4.6159999,5.76947562 C4.6105999,5.76888895 4.6053999,5.76810673 4.5999999,5.76771562 L4.5999999,4.79658674 C4.79679991,4.81516451 4.99719991,4.83100451 5.19999991,4.84410674 L5.19999991,5.81875562 C5.18379991,5.81758229 5.16659991,5.81680006 5.15039991,5.81562673 Z M3.82900015,5.66954684 C3.74980015,5.65722683 3.67540014,5.64392906 3.60000014,5.63102239 L3.60000014,4.67201792 C3.79360015,4.70272015 3.99380015,4.73029348 4.20000015,4.75454237 L4.20000015,5.72176017 C4.07760015,5.70592017 3.95780015,5.6894935 3.84280015,5.6718935 C3.83820015,5.67091572 3.83360015,5.6701335 3.82900015,5.66954684 Z M3.20000003,4.60200879 L3.20000003,5.55495099 C2.97900003,5.50860433 2.77860003,5.45932433 2.60000002,5.40808877 L2.60000002,4.46687991 C2.78680003,4.51615991 2.98760003,4.56133324 3.20000003,4.60200879 Z M2.20000009,4.34739544 L2.20000009,5.27647989 C1.88560009,5.15777767 1.68280008,5.03653322 1.61680008,4.92858655 L1.60340008,4.90668433 C1.60220008,4.90062211 1.60020008,4.89416878 1.60000008,4.88810655 L1.60000008,4.078311 C1.75980009,4.17667544 1.96220009,4.26643544 2.20000009,4.34739544 Z M6.99679996,4.88497763 C7.19819997,4.88126207 7.39959998,4.87519985 7.59999999,4.86620429 L7.59999999,5.84163542 C7.33719998,5.85434654 7.06999997,5.86138654 6.79999995,5.86412431 L6.79999995,4.88791096 C6.85499996,4.88732429 6.90999996,4.88654207 6.96499996,4.88556429 C6.97559996,4.88536874 6.98619996,4.88517318 6.99679996,4.88497763 Z M9.58140028,5.63532433 C9.49360028,5.65018655 9.40500028,5.66485322 9.31400028,5.67834655 C9.26180028,5.68616878 9.20840027,5.69359989 9.15480027,5.701031 C9.10420027,5.708071 9.05160027,5.71413322 9.00020027,5.72058655 L9.00020027,4.75434655 C9.20640027,4.73009766 9.40660028,4.70252433 9.60020028,4.6718221 L9.60020028,5.63199989 C9.59380028,5.63317322 9.58760028,5.63434655 9.58140028,5.63532433 Z M8.22720024,5.80232893 C8.15260024,5.80839115 8.07560024,5.81230227 8.00000024,5.81758227 L8.00000024,4.84410673 C8.20280024,4.83100451 8.40320024,4.81536007 8.60000025,4.79658674 L8.60000025,5.76673782 C8.48380025,5.77866671 8.36780024,5.7905956 8.24840024,5.80037338 C8.24120024,5.80096004 8.23440024,5.80174227 8.22720024,5.80232893 Z M10.5128,5.43566239 C10.4132,5.46284461 10.3078,5.48826683 10.2002,5.51310239 C10.1504,5.52444461 10.0996,5.53578683 10.0476,5.54673794 C10.0322,5.55006239 10.0158,5.55299572 10.0002,5.55632017 L10.0002,4.60220462 C10.2126,4.56133351 10.4134,4.51635573 10.6002,4.46707573 L10.6002,5.41180461 C10.5714,5.41962683 10.5424,5.42764461 10.5128,5.43566239 Z M11.5978001,3.53271122 C11.5794001,3.66549344 11.2716001,3.8420801 10.7222001,4.00810676 C10.0146001,4.22184898 8.90740004,4.41760008 7.50420003,4.4782223 C7.43240002,4.48115564 7.36080002,4.48408897 7.28760002,4.48643564 C7.22780002,4.48839119 7.16780002,4.49015119 7.10680002,4.49171564 C6.94120002,4.49523564 6.77320002,4.49777786 6.60000001,4.49777786 C6.42680001,4.49777786 6.25880001,4.49523564 6.09320001,4.49152008 C6.03240001,4.49015119 5.97240001,4.48819564 5.91240001,4.48624008 C5.839,4.48408897 5.7674,4.48096008 5.6958,4.47802675 C4.29259999,4.41740453 3.18519997,4.22165342 2.47779996,4.00791121 C1.93279996,3.84325343 1.62559995,3.66803566 1.60279995,3.53584011 C1.60379995,3.53212455 1.60379995,3.52899566 1.60619995,3.52430233 C1.61979995,3.52762678 1.63499995,3.53036455 1.64879995,3.533689 C1.72699995,3.55187566 1.80719995,3.56947566 1.88879996,3.58629344 C2.28619996,3.66999122 2.72659997,3.73863121 3.19579997,3.7910401 C3.19739997,3.7910401 3.19859997,3.79182232 3.19999997,3.79182232 C3.20039997,3.79182232 3.20079997,3.79162677 3.20099997,3.79162677 C3.52059998,3.82721788 3.85219998,3.85518232 4.19259998,3.87493343 C4.19519998,3.87493343 4.19739998,3.87630232 4.19999998,3.87630232 C4.20139998,3.87630232 4.20239998,3.8755201 4.20379998,3.8755201 C4.44879999,3.8896001 4.69699999,3.89996454 4.94819999,3.9054401 C5.102,3.90915565 5.253,3.91111121 5.4,3.91111121 C5.505,3.91111121 5.6126,3.90993788 5.7212,3.90798232 C7.17440002,3.8860801 8.52120004,3.7171201 9.45840005,3.45527122 C9.50160005,3.44334233 9.54380005,3.43102233 9.58540005,3.41870233 C9.61080005,3.41107567 9.63680005,3.40364456 9.66140005,3.39601789 C9.73380005,3.37333345 9.80320005,3.35006234 9.87020005,3.32581345 C9.88180005,3.32151123 9.89280005,3.317209 9.90440006,3.31290678 C9.96100006,3.29198234 10.0154001,3.27027567 10.0674001,3.24817789 C10.0824001,3.24172456 10.0978001,3.23546678 10.1124001,3.22901345 C10.1678001,3.20456901 10.2214001,3.1795379 10.2710001,3.15352901 C10.2934001,3.14199123 10.3128001,3.13006234 10.3338001,3.11832901 C10.3578001,3.10483568 10.3818001,3.09114679 10.4040001,3.07726234 C10.4166001,3.06944012 10.4316001,3.06200901 10.4436001,3.05418679 C11.3390001,3.24407123 11.5750001,3.45175122 11.5978001,3.53271122 Z M5.40000008,0.391111132 C8.69780015,0.391111132 10.3658002,0.898773374 10.3970002,1.19015116 C10.3728002,1.32234672 10.0658002,1.49697784 9.52220016,1.66124452 C8.81460015,1.87498675 7.70740013,2.07073786 6.3042001,2.13136009 C6.2324001,2.13429342 6.1608001,2.13722676 6.08760009,2.13957342 C6.02780009,2.14152898 5.96780009,2.14328898 5.90680009,2.14485342 C5.74120009,2.14856898 5.57320008,2.1511112 5.40000008,2.1511112 C5.22680008,2.1511112 5.05880007,2.14856898 4.89320007,2.14485342 C4.83240007,2.14348453 4.77240007,2.14152898 4.71240007,2.13957342 C4.63900007,2.13742231 4.56740006,2.13429342 4.49580006,2.13136009 C3.09260004,2.07073786 1.98520001,1.87498675 1.2778,1.66124452 C0.733999989,1.49697784 0.427199983,1.32234672 0.402999982,1.19015116 C0.434199983,0.898773374 2.10220002,0.391111132 5.40000008,0.391111132 Z M0.400000021,2.54144005 L0.400000021,1.73164447 C0.559800023,1.83000892 0.762200026,1.91976892 1.00000003,2.00072892 L1.00000003,2.93704895 C0.611000024,2.79448895 0.400400021,2.65153783 0.400000021,2.54144005 Z M1.36880002,5.24773343 C1.37180002,5.25086232 1.37640002,5.2536001 1.37940002,5.25672899 C1.65320002,5.52698677 2.22020003,5.73936011 2.92600003,5.89776011 C2.94220003,5.90147567 2.95940003,5.90499567 2.97580003,5.90871122 C3.02760003,5.92005345 3.08020003,5.93120011 3.13340003,5.94195567 C3.78160004,6.07688901 4.55540004,6.17447123 5.39840005,6.22277345 C5.39900005,6.22277345 5.39940005,6.22296901 5.39980005,6.22296901 C5.40020005,6.22296901 5.40040005,6.22277345 5.40060005,6.22277345 C5.67140005,6.23822234 5.94840005,6.2489779 6.23120005,6.25367123 C6.35640005,6.25621345 6.47960005,6.2577779 6.60000006,6.2577779 C6.73800006,6.2577779 6.87960006,6.25621345 7.02360006,6.25288901 C7.28520006,6.24760901 7.54300006,6.23704901 7.79720006,6.2225779 C7.79820006,6.2225779 7.79900006,6.22316456 7.80000006,6.22316456 C7.80180006,6.22316456 7.80320006,6.22218679 7.80500006,6.22218679 C8.65020007,6.17349345 9.44320007,6.07493345 10.1138001,5.93315567 C9.96860008,6.00746678 9.76980008,6.08432012 9.52220007,6.1592179 C8.77520007,6.38488901 7.58220006,6.5904179 6.06600005,6.63813346 C6.02100005,6.63950235 5.97660005,6.64106679 5.93100005,6.64224013 C5.88200005,6.64341346 5.83220005,6.64419568 5.78240005,6.64517346 C5.65660005,6.64712902 5.53000005,6.64888902 5.40000005,6.64888902 C5.22680005,6.64888902 5.05880004,6.64634679 4.89320004,6.64263124 C4.83240004,6.64126235 4.77240004,6.63930679 4.71240004,6.63735124 C4.63900004,6.63520013 4.56740004,6.63207124 4.49580004,6.62913791 C3.09260003,6.56851568 1.98520002,6.37276457 1.27780002,6.15902234 C0.727800016,5.99280012 0.420000014,5.81601789 0.402200013,5.68323566 C0.424400014,5.60970677 0.626600015,5.42568899 1.36880002,5.24773343 Z M0.400000021,7.03921804 L0.400000021,6.22942251 C0.559800023,6.32778695 0.762200026,6.41754695 1.00000003,6.49850694 L1.00000003,7.43111137 L0.885800028,7.38769804 L0.883400028,7.3900447 C0.569400023,7.26273804 0.400400021,7.13777804 0.400000021,7.03921804 Z M1.00000003,9.19032924 L1.00000003,8.38053366 C1.15980003,8.47889811 1.36220004,8.56865811 1.60000004,8.64961812 L1.60000004,9.58593814 C1.21100003,9.44337814 1.00040003,9.30042702 1.00000003,9.19032924 Z M10.4000001,9.58593771 L10.4000001,8.64981324 C10.6378001,8.56885323 10.8402001,8.47909323 11.0000001,8.38072879 L11.0000001,9.1899377 C10.9998001,9.30003548 10.7890001,9.44318215 10.4000001,9.58593771 Z M10.9973997,7.8372798 C10.9755997,7.96967091 10.6683998,8.14527981 10.1221998,8.3103287 C9.41459979,8.52407093 8.30739982,8.71982204 6.90419986,8.78044427 C6.83239986,8.7833776 6.76079986,8.78631094 6.68759987,8.7886576 C6.62779987,8.79061316 6.56779987,8.79237316 6.50679987,8.7939376 C6.34119988,8.7974576 6.17319988,8.79999983 5.99999988,8.79999983 C5.82679989,8.79999983 5.65859989,8.7974576 5.4927999,8.79374205 C5.4325999,8.79237316 5.3731999,8.7904176 5.3137999,8.78846205 C5.23999991,8.78611538 5.16799991,8.78318205 5.09579991,8.78024871 C3.69259995,8.71962649 2.58539998,8.52387537 1.8778,8.31013314 C1.34880001,8.15036425 1.04320002,7.98062202 1.00480002,7.8495998 C1.06440002,7.86993758 1.12620002,7.88968869 1.18960002,7.90904869 C1.19600002,7.91100424 1.20240002,7.9129598 1.20880002,7.9147198 C1.26280001,7.93095091 1.31800001,7.94659536 1.37460001,7.96184869 C1.39600001,7.96771536 1.41760001,7.97358202 1.43940001,7.97925313 C1.47140001,7.98766202 1.50420001,7.9956798 1.53700001,8.00389313 C2.26539999,8.18634647 3.19519996,8.3156087 4.19899993,8.3736887 C4.19939993,8.3736887 4.19959993,8.37388426 4.19999993,8.37388426 C4.20019993,8.37388426 4.20039993,8.3736887 4.20059993,8.3736887 C4.51059993,8.39167981 4.82719992,8.40282648 5.14719991,8.40654204 C5.23239991,8.40810648 5.3169999,8.4088887 5.3999999,8.4088887 C5.5101999,8.4088887 5.62299989,8.40751981 5.73719989,8.40556426 C6.02899988,8.40087092 6.31699988,8.39031092 6.59859987,8.37388426 C6.59919987,8.37388426 6.59959987,8.37427537 6.60019987,8.37427537 C6.60119987,8.37427537 6.60179987,8.3736887 6.60279987,8.3736887 C6.94579986,8.35354648 7.27779985,8.32479981 7.59679984,8.28901314 C7.59799984,8.28901314 7.59899984,8.28959981 7.60019984,8.28959981 C7.60459984,8.28959981 7.60819984,8.2874487 7.61259984,8.28705759 C7.96779983,8.2469687 8.30459982,8.1976887 8.61719981,8.14039092 C8.68159981,8.12885314 8.74499981,8.11692425 8.80779981,8.10460425 C8.82179981,8.10186647 8.83579981,8.09912869 8.84979981,8.09619536 C9.44039979,7.97768869 9.95159978,7.82417757 10.3023998,7.63390201 C10.3215998,7.62373312 10.3395998,7.61317312 10.3577998,7.60280868 C10.3799998,7.58990201 10.4011998,7.57679979 10.4217998,7.56350201 C10.4409998,7.55137757 10.4631998,7.53964423 10.4807998,7.52732423 C10.8755998,7.66499535 10.9843997,7.78819535 10.9973997,7.8372798 Z M11.0000002,5.28371574 L11.0000002,4.34759127 C11.2378002,4.26663127 11.4402002,4.17687127 11.6000002,4.07850682 L11.6000002,4.88771573 C11.5998002,4.99781351 11.3890002,5.14096018 11.0000002,5.28371574 Z" id="Shape"></path>
                </g>
            </g>
        </g>
    </g>
</svg>