<?xml version="1.0" encoding="UTF-8"?>
<svg width="14px" height="14px" viewBox="0 0 14 14" version="1.1" xmlns="http://www.w3.org/2000/svg" xmlns:xlink="http://www.w3.org/1999/xlink">
    <!-- Generator: Sketch 51.3 (57544) - http://www.bohemiancoding.com/sketch -->
    <title>Icon/info</title>
    <desc>Created with Sketch.</desc>
    <defs>
        <path d="M7,13.4166667 C3.45617286,13.4166667 0.583333333,10.5438271 0.583333333,7 C0.583333333,3.45617286 3.45617286,0.583333333 7,0.583333333 C10.5438271,0.583333333 13.4166667,3.45617286 13.4166667,7 C13.4166667,10.5438271 10.5438271,13.4166667 7,13.4166667 Z M7,12.25 C9.89949494,12.25 12.25,9.89949494 12.25,7 C12.25,4.10050506 9.89949494,1.75 7,1.75 C4.10050506,1.75 1.75,4.10050506 1.75,7 C1.75,9.89949494 4.10050506,12.25 7,12.25 Z M7.58333333,9.33333333 C7.58333333,9.65549944 7.3221661,9.91666667 7,9.91666667 C6.6778339,9.91666667 6.41666667,9.65549944 6.41666667,9.33333333 L6.41666667,7 C6.41666667,6.6778339 6.6778339,6.41666667 7,6.41666667 C7.3221661,6.41666667 7.58333333,6.6778339 7.58333333,7 L7.58333333,9.33333333 Z M6.58752104,5.66247896 C6.35971521,5.43467312 6.35971521,5.06532688 6.58752104,4.83752104 C6.81532688,4.60971521 7.18467312,4.60971521 7.41247896,4.83752104 C7.64028479,5.06532688 7.64028479,5.43467312 7.41247896,5.66247896 C7.18467312,5.89028479 6.81532688,5.89028479 6.58752104,5.66247896 Z" id="path-1"></path>
    </defs>
    <g id="Symbols" stroke="none" stroke-width="1" fill="none" fill-rule="evenodd">
        <g id="textinput/standard/DOB-entered" transform="translate(-402.000000, -3.000000)">
            <g id="Icon/info" transform="translate(402.000000, 3.000000)">
                <mask id="mask-2" fill="white">
                    <use xlink:href="#path-1"></use>
                </mask>
                <use id="Combined-Shape" fill="#000000" fill-rule="nonzero" xlink:href="#path-1"></use>
                <g id="Colour/Fill/Dark" mask="url(#mask-2)" fill="#263238" fill-rule="nonzero">
                    <rect x="0" y="0" width="14" height="14" rx="2"></rect>
                </g>
            </g>
        </g>
    </g>
</svg>