<?xml version="1.0" encoding="UTF-8"?>
<svg width="290px" height="175px" viewBox="0 0 290 175" version="1.1" xmlns="http://www.w3.org/2000/svg" xmlns:xlink="http://www.w3.org/1999/xlink">
    <!-- Generator: Sketch 56.2 (81672) - https://sketch.com -->
    <title>Logo/withoutText Copy</title>
    <desc>Created with Sketch.</desc>
    <defs>
        <rect id="path-1" x="0" y="0" width="290" height="175" rx="4"></rect>
    </defs>
    <g id="Wallet" stroke="none" stroke-width="1" fill="none" fill-rule="evenodd">
        <g id="mobile-/-wallet-overview" transform="translate(-15.000000, -67.000000)">
            <g id="Logo/withoutText-Copy" transform="translate(15.000000, 67.000000)">
                <mask id="mask-2" fill="white">
                    <use xlink:href="#path-1"></use>
                </mask>
                <use id="Mask" fill="#FFFFFF" fill-rule="nonzero" xlink:href="#path-1"></use>
                <g id="Group-4" mask="url(#mask-2)" fill="#E5F3FA" opacity="0.501069568">
                    <g transform="translate(-66.000000, -37.000000)">
                        <path d="M218,71.7398351 C212.525496,57.4208383 203.951517,43.98513 192.245133,32.4699662 C148.267988,-10.8233221 76.9594832,-10.8233221 32.982338,32.4699662 C0.699227694,64.2440388 -7.88298382,110.515387 7.22747108,150 C12.7019753,135.69721 21.288303,122.281761 32.982338,110.770649 C75.3953391,69.0170377 143.217449,67.546241 187.441564,106.325844 C196.904636,99.5026438 208.24468,88.6438686 218,71.7398351" id="Fill-1"></path>
                        <path d="M218.773348,74 C213.2946,88.3063584 204.712187,101.721355 193.013762,113.23613 C150.599768,154.98428 82.7760696,156.455027 38.5509187,117.672681 C29.0876255,124.507806 17.7514317,135.366215 8,152.277781 C13.4746324,166.592242 22.0446961,180.015342 33.7472374,191.534169 C77.7254125,234.821944 149.035587,234.821944 193.013762,191.534169 C225.297628,159.757117 233.884157,113.487332 218.773348,74" id="Fill-3"></path>
                    </g>
                </g>
            </g>
        </g>
    </g>
</svg>