<?xml version="1.0" encoding="UTF-8"?>
<svg width="15px" height="18px" viewBox="0 0 15 18" version="1.1" xmlns="http://www.w3.org/2000/svg" xmlns:xlink="http://www.w3.org/1999/xlink">
    <!-- Generator: sketchtool 63.1 (101010) - https://sketch.com -->
    <title>56116BEB-78A3-4B8D-96BF-61135B9D4724</title>
    <desc>Created with sketchtool.</desc>
    <g id="Commuinity" stroke="none" stroke-width="1" fill="none" fill-rule="evenodd">
        <g id="Community---Invite-by-email" transform="translate(-748.000000, -632.000000)" fill="#000000" fill-rule="nonzero">
            <g id="Group-11" transform="translate(748.000000, 632.000000)">
                <g id="Apple_logo_black">
                    <path d="M14.6856232,14.0274653 C14.4163137,14.6563351 14.0975389,15.2352061 13.7281999,15.7674126 C13.2247553,16.4929451 12.8125468,16.9951526 12.4948712,17.2740334 C12.0024193,17.7317971 11.4747921,17.9662343 10.9097912,17.9795675 C10.5041779,17.9795675 10.0150234,17.8629039 9.44562587,17.6262455 C8.87435974,17.3906955 8.34937055,17.2740334 7.86933964,17.2740334 C7.36589539,17.2740334 6.82595675,17.3906955 6.24842498,17.6262455 C5.67001315,17.8629039 5.20405269,17.9862342 4.84779425,17.998456 C4.30598706,18.0217885 3.76593907,17.7806847 3.22687958,17.2740334 C2.88282304,16.9707088 2.45247721,16.4507242 1.93694117,15.7140796 C1.38381222,14.9274379 0.929063541,14.0152434 0.572805248,12.975275 C0.191264868,11.8519756 0,10.7642308 0,9.71115206 C0,8.50485538 0.257877808,7.46444243 0.774402803,6.59257985 C1.18034596,5.89226815 1.72039433,5.33984029 2.39630643,4.9342968 C3.07221913,4.52875392 3.80254311,4.32209356 4.58903757,4.30887145 C5.01938309,4.30887145 5.58372477,4.44342294 6.28502901,4.70785945 C6.9843549,4.97318474 7.43338772,5.10773623 7.63025831,5.10773623 C7.77744427,5.10773623 8.27627182,4.95040738 9.12190436,4.63675066 C9.92158967,4.34587053 10.5965125,4.22542932 11.1494218,4.27287228 C12.6476634,4.3950909 13.773268,4.99207295 14.5218391,6.06759583 C13.1818861,6.88823775 12.5190543,8.03764721 12.5322448,9.51215794 C12.5443363,10.6606785 12.9565449,11.6164271 13.7666725,12.3752935 C14.1338128,12.7275045 14.5438234,12.9997185 15,13.1930462 C14.9010713,13.4830372 14.7966451,13.7608067 14.6856232,14.0274653 Z M11.2494515,0.360102487 C11.2494515,1.260308 10.9240809,2.10082733 10.2755396,2.87880331 C9.49289205,3.80366457 8.54624144,4.33809255 7.51967654,4.25376195 C7.50659595,4.14576506 7.4990112,4.03210206 7.4990112,3.91266138 C7.4990112,3.04846504 7.87120834,2.12360423 8.53217159,1.36740489 C8.86215784,0.984527923 9.28184137,0.666170903 9.79078191,0.412211474 C10.298623,0.162041272 10.7789837,0.0236917622 11.2307641,0 C11.2439557,0.120343414 11.2494515,0.240694402 11.2494515,0.360090812 L11.2494515,0.360102487 Z" id="path4"></path>
                </g>
            </g>
        </g>
    </g>
</svg>