<?xml version="1.0" encoding="UTF-8"?>
<svg width="26px" height="26px" viewBox="0 0 26 26" version="1.1" xmlns="http://www.w3.org/2000/svg" xmlns:xlink="http://www.w3.org/1999/xlink">
    <!-- Generator: sketchtool 51.3 (57544) - http://www.bohemiancoding.com/sketch -->
    <title>7411A04D-BEA0-4351-B77D-C4691190DF0C</title>
    <desc>Created with sketchtool.</desc>
    <defs>
        <linearGradient x1="87.8155048%" y1="25.6986178%" x2="11.1102764%" y2="82.2040264%" id="linearGradient-1">
            <stop stop-color="#0DB7FF" offset="0%"></stop>
            <stop stop-color="#0B70CB" offset="100%"></stop>
        </linearGradient>
        <path d="M10.8333333,9.16666667 L15.8333333,9.16666667 C16.2935706,9.16666667 16.6666667,9.53976271 16.6666667,10 C16.6666667,10.4602373 16.2935706,10.8333333 15.8333333,10.8333333 L10.8333333,10.8333333 L10.8333333,15.8333333 C10.8333333,16.2935706 10.4602373,16.6666667 10,16.6666667 C9.53976271,16.6666667 9.16666667,16.2935706 9.16666667,15.8333333 L9.16666667,10.8333333 L4.16666667,10.8333333 C3.70642938,10.8333333 3.33333333,10.4602373 3.33333333,10 C3.33333333,9.53976271 3.70642938,9.16666667 4.16666667,9.16666667 L9.16666667,9.16666667 L9.16666667,4.16666667 C9.16666667,3.70642938 9.53976271,3.33333333 10,3.33333333 C10.4602373,3.33333333 10.8333333,3.70642938 10.8333333,4.16666667 L10.8333333,9.16666667 Z" id="path-2"></path>
    </defs>
    <g id="Home" stroke="none" stroke-width="1" fill="none" fill-rule="evenodd">
        <g id="home" transform="translate(-1162.000000, -15.000000)">
            <g id="icons/create_post" transform="translate(1162.000000, 15.000000)">
                <g id="Group-7">
                    <circle id="Oval-3-Copy" fill="url(#linearGradient-1)" fill-rule="nonzero" cx="13" cy="13" r="13"></circle>
                    <g id="Icon/plus-square" transform="translate(3.000000, 3.000000)">
                        <mask id="mask-3" fill="white">
                            <use xlink:href="#path-2"></use>
                        </mask>
                        <use id="Combined-Shape" fill="#000000" fill-rule="nonzero" xlink:href="#path-2"></use>
                        <g id="Colour/Fill/Grey" mask="url(#mask-3)" fill="#FAFAFA" fill-rule="nonzero">
                            <rect id="Colour/Fill/Light" x="0" y="0" width="20" height="20" rx="2"></rect>
                        </g>
                    </g>
                </g>
            </g>
        </g>
    </g>
</svg>