<?xml version="1.0" encoding="UTF-8"?>
<svg width="15px" height="9px" viewBox="0 0 15 9" version="1.1" xmlns="http://www.w3.org/2000/svg" xmlns:xlink="http://www.w3.org/1999/xlink">
    <!-- Generator: Sketch 51.3 (57544) - http://www.bohemiancoding.com/sketch -->
    <title>eye</title>
    <desc>Created with Sketch.</desc>
    <defs></defs>
    <g id="Symbols" stroke="none" stroke-width="1" fill="none" fill-rule="evenodd">
        <g id="textinput/small/WOL/forgotpassword-entered-Copy" transform="translate(-190.000000, -12.000000)" fill="#90A4AE">
            <g id="eye" transform="translate(190.000000, 12.000000)">
                <g id="Shape">
                    <path d="M7.5,0 C4.63409021,0 2.03513348,1.57824296 0.117367291,4.14172958 C-0.0391224302,4.35175017 -0.0391224302,4.64516129 0.117367291,4.85518188 C2.03513348,7.42175704 4.63409021,9 7.5,9 C10.3659098,9 12.9648665,7.42175704 14.8826327,4.85827042 C15.0391224,4.64824983 15.0391224,4.35483871 14.8826327,4.14481812 C12.9648665,1.57824296 10.3659098,0 7.5,0 Z M7.70558454,7.66884008 C5.80316048,7.78929307 4.23212642,6.2110501 4.35179503,4.29306795 C4.44998466,2.71173644 5.72338141,1.42999314 7.29441546,1.33115992 C9.19683952,1.21070693 10.7678736,2.7889499 10.648205,4.70693205 C10.5469469,6.28517502 9.27355017,7.56691833 7.70558454,7.66884008 Z M7.61046333,6.20487303 C6.58560908,6.26973233 5.73872353,5.42038435 5.8062289,4.38881263 C5.85839214,3.53637612 6.54571955,2.84763212 7.39260509,2.79203844 C8.41745934,2.72717914 9.26434489,3.57652711 9.19683952,4.60809883 C9.14160786,5.46362388 8.45428045,6.15236788 7.61046333,6.20487303 Z" fill-rule="nonzero"></path>
                </g>
            </g>
        </g>
    </g>
</svg>