<?xml version="1.0" encoding="UTF-8"?>
<svg width="14px" height="14px" viewBox="0 0 14 14" version="1.1" xmlns="http://www.w3.org/2000/svg" xmlns:xlink="http://www.w3.org/1999/xlink">
    <!-- Generator: sketchtool 56.2 (101010) - https://sketch.com -->
    <title>B716D63E-5708-46B5-9E81-158484BB2F58</title>
    <desc>Created with sketchtool.</desc>
    <g id="Invite-friends" stroke="none" stroke-width="1" fill="none" fill-rule="evenodd">
        <g id="Invite-friends-v2" transform="translate(-664.000000, -910.000000)" fill-rule="nonzero">
            <g id="Group-5" transform="translate(441.000000, 897.000000)">
                <g id="Button/S/Primary/Default-Copy-2" transform="translate(192.000000, 0.000000)">
                    <g id="Button/L/Primary/Default">
                        <g id="Group-2" transform="translate(29.000000, 9.000000)">
                            <g id="g4672" transform="translate(9.000000, 11.000000) scale(1, -1) translate(-9.000000, -11.000000) translate(2.000000, 4.000000)">
                                <g transform="translate(-0.000000, 0.000000)">
                                    <g id="g4678" transform="translate(0.037199, 0.028799)" fill="#3B5998">
                                        <path d="M13.1389646,-5.55350675e-16 C13.5613849,-5.55350675e-16 13.9039328,0.343689687 13.9039328,0.767518055 L13.9039328,13.1392005 C13.9039328,13.5631852 13.5613849,13.9067706 13.1389646,13.9067706 L0.808435816,13.9067706 C0.38585971,13.9067706 0.0434676409,13.5631852 0.0434676409,13.1392005 L0.0434676409,0.767518055 C0.0434676409,0.343689687 0.38585971,-5.55350675e-16 0.808435816,-5.55350675e-16 L13.1389646,-5.55350675e-16 Z" id="path4680"></path>
                                    </g>
                                    <g id="g4682" transform="translate(5.645320, 0.028799)" fill="#FFFFFF">
                                        <path d="M3.99881524,0 L3.99881524,5.38539234 L5.8005152,5.38539234 L6.07025346,7.48421294 L3.99881524,7.48421294 L3.99881524,8.82421715 C3.99881524,9.43187469 4.16697321,9.84595928 5.0354951,9.84595928 L6.14321886,9.84648034 L6.14321886,11.723643 C5.95158732,11.7491748 5.29406785,11.8063348 4.52909968,11.8063348 C2.93201442,11.8063348 1.83867602,10.8282573 1.83867602,9.03201497 L1.83867602,7.48421294 L0.0324059836,7.48421294 L0.0324059836,5.38539234 L1.83867602,5.38539234 L1.83867602,0 L3.99881524,0 Z" id="path4684"></path>
                                    </g>
                                </g>
                            </g>
                        </g>
                    </g>
                </g>
            </g>
        </g>
    </g>
</svg>