<?xml version="1.0" encoding="UTF-8"?>
<svg width="16px" height="10px" viewBox="0 0 16 10" version="1.1" xmlns="http://www.w3.org/2000/svg" xmlns:xlink="http://www.w3.org/1999/xlink">
    <!-- Generator: sketchtool 56.2 (101010) - https://sketch.com -->
    <title>7B111F14-4E22-4CB3-A3B1-7DEBBF477222</title>
    <desc>Created with sketchtool.</desc>
    <defs>
        <linearGradient x1="-0.00277793211%" y1="50.0006371%" x2="100%" y2="50.0006371%" id="linearGradient-1">
            <stop stop-color="#C8C8C8" offset="0%"></stop>
            <stop stop-color="#CDCDCD" offset="100%"></stop>
        </linearGradient>
        <linearGradient x1="-0.00234356691%" y1="49.9996311%" x2="100%" y2="49.9996311%" id="linearGradient-2">
            <stop stop-color="#D9D9D9" offset="0%"></stop>
            <stop stop-color="#E2E2E2" offset="100%"></stop>
        </linearGradient>
    </defs>
    <g id="Invite-friends" stroke="none" stroke-width="1" fill="none" fill-rule="evenodd">
        <g id="Invite-friends-v2" transform="translate(-463.000000, -912.000000)" fill-rule="nonzero">
            <g id="Group-5" transform="translate(441.000000, 897.000000)">
                <g id="Button/S/Primary/Default-Copy">
                    <g id="Button/L/Primary/Default">
                        <g id="Group-2" transform="translate(22.000000, 9.000000)">
                            <g id="Gmail_Icon" transform="translate(0.000000, 6.000000)">
                                <g id="Path">
                                    <path d="M14.124586,10 L0.941639066,10 C0.421540422,10 0,9.62694444 0,9.16666667 L0,0.833333333 C0,0.373055556 0.421540422,0 0.941639066,0 L14.124586,0 C14.6446846,0 15.0662251,0.373055556 15.0662251,0.833333333 L15.0662251,9.16666667 C15.0662251,9.62694444 14.6446846,10 14.124586,10 Z" fill="#EAEAEA"></path>
                                    <path d="M1.88327813,10 L0.941639066,10 C0.421540422,10 0,9.62694444 0,9.16666667 L0,0.833333333 C0,0.373055556 0.421540422,0 0.941639066,0 L0.941639066,0 C1.46173771,0 1.88327813,0.373055556 1.88327813,0.833333333 L1.88327813,10 Z" fill="#D54C3F"></path>
                                    <path d="M13.1829469,10 L14.124586,10 C14.6446846,10 15.0662251,9.62694444 15.0662251,9.16666667 L15.0662251,0.833333333 C15.0662251,0.373055556 14.6446846,0 14.124586,0 L14.124586,0 C13.6044873,0 13.1829469,0.373055556 13.1829469,0.833333333 L13.1829469,10 Z" fill="#B63524"></path>
                                    <path d="M14.6638313,1.51666667 C14.907088,1.36583333 15.0662251,1.11611111 15.0662251,0.833333333 C15.0662251,0.373055556 14.6446846,0 14.124586,0 C13.9240169,0 13.7378862,0.0555555556 13.5853407,0.15 C13.5853407,0.15 7.53374029,4.04916667 7.53374029,4.04916667 L7.53311253,4.04944444 L7.53248477,4.04916667 L1.48088437,0.15 C1.32833884,0.0555555556 1.14220819,0 0.941639066,0 C0.421540422,0 0,0.373055556 0,0.833333333 C0,1.11611111 0.159137002,1.36583333 0.402393761,1.51666667 L0.377283386,1.50027778 L7.53311253,6.11111111" fill="#DE5145"></path>
                                    <path d="M14.6892555,1.50027778 L7.53311253,6.11111138" fill="#DE5145"></path>
                                    <path d="M14.124586,0 C13.9240169,0 13.7378862,0.0555555558 13.5853407,0.150000001 C13.5853407,0.150000001 7.53374029,4.04916669 7.53374029,4.04916669 L7.53311253,4.04944446 L7.53248477,4.04916669 L1.48088437,0.150000001 C1.32833884,0.0555555558 1.14220819,0 0.941639066,0 L14.124586,0 Z" fill="#EFEFEF"></path>
                                    <path d="M1.88359202,2.82999999 L0.296616312,1.43888884 L0.295988552,1.43999995 C0.329259799,1.46777773 0.364728204,1.49333329 0.402393767,1.51666662 L0.377283392,1.50027773 L1.8839059,2.47111109 L1.88359202,2.83999999" fill="#C64132"></path>
                                    <polyline fill="#E3E3E3" points="6.48726547 6.8308333 1.88327813 10 1.88359201 2.7952777 6.48632383 6.82972219"></polyline>
                                    <polygon fill="url(#linearGradient-1)" points="6.48726552 6.83083322 7.53311268 6.11111101 1.88359199 2.47111109 1.88359199 2.79527775 6.48632388 6.82972211"></polygon>
                                    <polygon fill="url(#linearGradient-2)" points="10.0632968 10 13.1829469 10 13.1829469 2.47083346 7.53311277 6.11111118 6.48632405 6.82972228"></polygon>
                                </g>
                            </g>
                        </g>
                    </g>
                </g>
            </g>
        </g>
    </g>
</svg>