<?xml version="1.0" encoding="UTF-8"?>
<svg width="17px" height="19px" viewBox="0 0 17 19" version="1.1" xmlns="http://www.w3.org/2000/svg" xmlns:xlink="http://www.w3.org/1999/xlink">
    <!-- Generator: sketchtool 63.1 (101010) - https://sketch.com -->
    <title>34D4C1DB-078D-490B-9991-3D8B65A5A3A0</title>
    <desc>Created with sketchtool.</desc>
    <g id="Organisation" stroke="none" stroke-width="1" fill="none" fill-rule="evenodd">
        <g id="Organisation---Invite-organisation-email" transform="translate(-498.000000, -633.000000)" fill-rule="nonzero">
            <g id="Group-9" transform="translate(498.000000, 632.000000)">
                <g id="Google__G__Logo" transform="translate(0.000000, 1.500000)">
                    <g id="Path">
                        <path d="M17,9.13762345 C17,8.53142493 16.9523855,7.92194967 16.8508079,7.3255814 L8.70238095,7.3255814 L8.70238095,10.7596141 L13.3686013,10.7596141 C13.174969,11.8671551 12.5528063,12.846903 11.6417823,13.4694853 L11.6417823,15.6976744 L14.4256431,15.6976744 C16.0604073,14.1444955 17,11.8507714 17,9.13762345 Z" fill="#4285F4"></path>
                        <path d="M8.59440622,18 C10.9439554,18 12.9253873,17.1975159 14.3690476,15.812315 L11.5617524,13.5480444 C10.7807034,14.1007928 9.77238185,14.4137949 8.59760724,14.4137949 C6.32488253,14.4137949 4.39786805,12.8188161 3.70644757,10.6744186 L0.80952381,10.6744186 L0.80952381,13.0086152 C2.28839539,16.0687104 5.30055589,18 8.59440622,18 Z" fill="#34A853"></path>
                        <path d="M3.8452381,10.6954859 C3.477951,9.59553534 3.477951,8.40446466 3.8452381,7.30451414 L3.8452381,5.02325581 L0.932715902,5.02325581 C-0.310905301,7.52580596 -0.310905301,10.474194 0.932715902,12.9767442 L3.8452381,10.6954859 L3.8452381,10.6954859 Z" fill="#FBBC04"></path>
                        <path d="M8.76566961,3.58488742 C10.0027012,3.5649193 11.1982858,4.05081015 12.0941772,4.94271939 L14.5714286,2.3568482 C13.0028215,0.819303165 10.9209102,-0.0260138019 8.76566961,0.000610354543 C5.48498539,0.000610354543 2.48486503,1.9308617 1.01190476,4.99263969 L3.89406078,7.3255814 C4.5795293,5.17900878 6.50202938,3.58488742 8.76566961,3.58488742 Z" fill="#EA4335"></path>
                    </g>
                </g>
            </g>
        </g>
    </g>
</svg>