<?xml version="1.0" encoding="UTF-8"?>
<svg width="17px" height="14px" viewBox="0 0 17 14" version="1.1" xmlns="http://www.w3.org/2000/svg" xmlns:xlink="http://www.w3.org/1999/xlink">
    <!-- Generator: sketchtool 56.2 (101010) - https://sketch.com -->
    <title>5DACE4E6-83FC-4CCD-8A5E-5E60975E4ED1</title>
    <desc>Created with sketchtool.</desc>
    <g id="Invite-friends" stroke="none" stroke-width="1" fill="none" fill-rule="evenodd">
        <g id="Invite-friends-v2" transform="translate(-861.000000, -910.000000)" fill="#1DA1F2" fill-rule="nonzero">
            <g id="Group-5" transform="translate(441.000000, 897.000000)">
                <g id="Button/S/Primary/Default-Copy-3" transform="translate(384.000000, 0.000000)">
                    <g id="Button/L/Primary/Default">
                        <g id="Group-2" transform="translate(35.000000, 9.000000)">
                            <g id="Twitter_Bird" transform="translate(1.000000, 4.000000)">
                                <g id="path3611">
                                    <path d="M5.34637171,14 C11.7618955,14 15.2700495,8.61429807 15.2700495,3.94418652 C15.2700495,3.79121416 15.2669747,3.63893201 15.2602032,3.48733834 C15.9412294,2.98845842 16.5331755,2.36589153 17,1.6571917 C16.3750739,1.93867326 15.7025477,2.1281655 14.9970404,2.21360938 C15.7171677,1.77605472 16.2700127,1.08389335 16.5307955,0.25874219 C15.8569088,0.66356562 15.1106016,0.957795261 14.3160137,1.11662343 C13.6795276,0.429629383 12.7734186,0 11.7700691,0 C9.84395013,0 8.28197447,1.58277384 8.28197447,3.53385008 C8.28197447,3.81119674 8.31257447,4.08096495 8.3724156,4.33970656 C5.47354766,4.19190327 2.90312136,2.78552963 1.18304516,0.647028317 C0.883501802,1.16933666 0.710780696,1.77605472 0.710780696,2.42342756 C0.710780696,3.64961235 1.32652628,4.73212759 2.26289522,5.36537482 C1.6906702,5.34745941 1.1531246,5.18828557 0.68323956,4.92334189 C0.682726138,4.93817043 0.682726138,4.95262727 0.682726138,4.96847552 C0.682726138,6.68010309 1.88497845,8.10921609 3.4809541,8.43307449 C3.1878713,8.51403952 2.87948794,8.55744994 2.56124516,8.55744994 C2.33684292,8.55744994 2.11822068,8.53506955 1.90571901,8.49371242 C2.34976292,9.89801889 3.63735521,10.9198962 5.16397087,10.9484931 C3.97021856,11.8966405 2.46638403,12.4613268 0.83198839,12.4613268 C0.550805023,12.4613268 0.273022797,12.4451201 0,12.4124028 C1.54361566,13.4149877 3.37657355,14 5.34655198,14"></path>
                                </g>
                            </g>
                        </g>
                    </g>
                </g>
            </g>
        </g>
    </g>
</svg>