<?xml version="1.0" encoding="UTF-8"?>
<svg width="22px" height="18px" viewBox="0 0 22 18" version="1.1" xmlns="http://www.w3.org/2000/svg" xmlns:xlink="http://www.w3.org/1999/xlink">
    <!-- Generator: sketchtool 63.1 (101010) - https://sketch.com -->
    <title>8377280B-5B94-4523-A78A-938E651B49D9</title>
    <desc>Created with sketchtool.</desc>
    <g id="Commuinity" stroke="none" stroke-width="1" fill="none" fill-rule="evenodd">
        <g id="Community---Invite-by-email" transform="translate(-624.000000, -633.000000)" fill-rule="nonzero">
            <g id="Group-5" transform="translate(624.000000, 632.000000)">
                <g id="Yahoo!_icon" transform="translate(0.000000, 1.000000)">
                    <g id="g4131" transform="translate(18.500000, 15.500000) scale(-1, 1) rotate(-180.000000) translate(-18.500000, -15.500000) translate(17.000000, 14.000000)" fill="#7B0099">
                        <polygon id="path4133" points="2.67241379 0 0.0507758621 0.3624 0.33512069 2.9724 2.95836207 2.6118"></polygon>
                    </g>
                    <g id="g4135" transform="translate(20.000000, 6.500000) scale(-1, 1) rotate(-180.000000) translate(-20.000000, -6.500000) translate(18.000000, 0.000000)" fill="#7B0099">
                        <polygon id="path4137" points="0 12.8737864 0.0161653747 0.368833981 1.72589147 0.0856106796 3.96907494 12.1946942"></polygon>
                    </g>
                    <g id="g4139" transform="translate(8.500000, 9.500000) scale(-1, 1) rotate(-180.000000) translate(-8.500000, -9.500000) translate(0.000000, 1.000000)" fill="#7B0099">
                        <path d="M13.428634,10.6184481 C13.2455705,10.5928389 12.4828057,10.3667284 12.2269861,10.2936485 C11.9519214,10.1962086 9.44442016,7.61967343 9.27919357,6.98568962 C9.24258086,6.76582528 9.2247439,6.42978263 9.2247439,6.11372765 L9.20690694,5.60279291 C9.20690694,5.23676876 9.28247933,4.64963104 9.31909204,4.3310776 C9.48337984,4.28360689 10.6761093,4.32545606 10.8962549,4.27673613 L10.8694995,3.62338926 C10.6549866,3.64337693 9.13978364,3.63713078 8.27516041,3.63713078 C7.8348691,3.63713078 6.42340219,3.57466932 5.989213,3.59215853 L6.0713569,4.21365005 C6.30933952,4.23863464 7.29365814,4.15743474 7.51051804,4.46099743 C7.6180092,4.61277878 7.58421286,4.77392934 7.58421286,5.65026362 L7.58421286,6.06500771 C7.58421286,6.26113669 7.58421286,6.62466238 7.54760015,6.96507734 C7.45559898,7.33047688 5.24710153,10.999463 4.67960453,11.5841023 C4.51625551,11.6571822 3.48311994,11.7939728 3.22730037,11.8676773 L3.21462673,12.4285812 C3.34136304,12.514778 4.48950007,12.4079689 5.60337137,12.462935 C6.33609496,12.4991626 8.00619781,12.462935 8.21226165,12.430455 L8.15968955,11.9357603 C7.93907451,11.8626804 6.88246925,11.8358219 6.60740453,11.7383821 C7.32088298,10.3267531 8.45071366,8.50787539 8.81543258,7.80206089 C9.01680248,8.19119579 10.7868862,9.81019681 10.8422747,10.3698515 C10.5667405,10.4429314 9.65752491,10.6184481 9.51154346,10.6184481 L9.42470562,11.255555 C9.6734843,11.3080226 10.9845009,11.255555 11.63555,11.255555 C12.1978837,11.255555 13.3990622,11.255555 13.7403115,11.2180781 L13.428634,10.6184481 Z M8.48826516,16.9770247 C3.50236508,16.9770247 0.0218106647,13.5041675 0.0218106647,8.53473381 C0.0218106647,3.56342626 3.50236508,0.0918183453 8.48826516,0.0918183453 C13.472757,0.0918183453 16.9542503,3.56342626 16.9542503,8.53473381 C16.9542503,13.5041675 13.472757,16.9770247 8.48826516,16.9770247" id="path4141"></path>
                    </g>
                    <g id="g4143" transform="translate(8.000000, 9.500000) scale(-1, 1) rotate(-180.000000) translate(-8.000000, -9.500000) translate(3.000000, 5.000000)" fill="#FFFFFF">
                        <path d="M9.64461248,7.12702703 C9.4720983,7.10142973 8.75328922,6.87542432 8.51221172,6.80237838 C8.25299811,6.70498378 5.88999622,4.12964595 5.73429112,3.49595676 C5.69978828,3.27619459 5.68297921,2.94030811 5.68297921,2.6244 L5.66617013,2.1137027 C5.66617013,1.74784865 5.73738752,1.16098378 5.77189036,0.842578378 C5.92671078,0.79512973 7.05070699,0.836959459 7.25816635,0.788262162 L7.23295274,0.135218919 C7.03080151,0.155197297 5.60291493,0.148954054 4.7881172,0.148954054 C4.37319849,0.148954054 3.04306994,0.0865216216 2.6339017,0.104002703 L2.71131191,0.725205405 C2.93558034,0.750178378 3.8631758,0.669016216 4.06753875,0.972437838 C4.16883554,1.12414865 4.13698677,1.28522432 4.13698677,2.16115135 L4.13698677,2.5757027 C4.13698677,2.77174054 4.13698677,3.1350973 4.10248393,3.47535405 C4.0157845,3.84058378 1.93455577,7.50786486 1.39976181,8.09223243 C1.24582609,8.16527838 0.272226843,8.30200541 0.0311493384,8.37567568 L0.0192060491,8.93631892 C0.138638941,9.02247568 1.22061248,8.91571622 2.2702949,8.97065676 C2.96079395,9.00686757 4.53465406,8.97065676 4.7288431,8.93819189 L4.67930057,8.44372703 C4.47139887,8.37068108 3.47568242,8.34383514 3.21646881,8.24644054 C3.88883176,6.83546757 4.95355388,5.01743514 5.2972552,4.31194865 C5.48702079,4.7009027 7.15510019,6.31915135 7.20729679,6.87854595 C6.94764083,6.95159189 6.09082042,7.12702703 5.95325142,7.12702703 L5.87141777,7.76383784 C6.10586011,7.81628108 7.34132703,7.76383784 7.95485822,7.76383784 C8.48478639,7.76383784 9.6167448,7.76383784 9.93832892,7.72637838 L9.64461248,7.12702703 Z" id="path4145"></path>
                    </g>
                </g>
            </g>
        </g>
    </g>
</svg>