<?xml version="1.0" encoding="UTF-8"?>
<svg width="364px" height="73px" viewBox="0 0 364 73" version="1.1" xmlns="http://www.w3.org/2000/svg" xmlns:xlink="http://www.w3.org/1999/xlink">
    <!-- Generator: sketchtool 63.1 (101010) - https://sketch.com -->
    <title>7B0D06D8-BC97-45C7-B99F-8BDD8D02DCD2</title>
    <desc>Created with sketchtool.</desc>
    <defs>
        <linearGradient x1="50.0004363%" y1="48.3530004%" x2="50%" y2="51.9779616%" id="linearGradient-1">
            <stop stop-color="#0288D1" offset="0%"></stop>
            <stop stop-color="#0068A0" offset="100%"></stop>
        </linearGradient>
        <path d="M828.802116,346.01873 C829.45288,344.520291 830.128673,343.771072 830.829496,343.771072 C831.229966,343.771072 833.269861,344.145682 836.949181,344.894901 C840.6285,345.644121 843.894835,346.01873 846.748185,346.01873 C852.25465,346.01873 856.697366,344.382934 860.076333,341.111342 C863.4553,337.83975 865.144783,333.506764 865.144783,328.112383 C865.144783,324.815817 864.46899,321.968783 863.117403,319.57128 C862.566757,318.522373 861.80336,317.560874 860.827214,316.686785 C859.851068,315.812695 858.924981,315.08845 858.048952,314.514048 C857.172924,313.939646 856.046602,313.390219 854.669985,312.865765 C853.293369,312.341311 852.142018,311.92924 851.21593,311.629553 C850.289843,311.329865 848.350066,310.780437 845.396598,309.98127 C842.443131,309.182102 839.952707,308.145682 837.925327,306.872008 C835.897946,305.598335 834.884256,303.775234 834.884256,301.402706 C834.884256,299.030177 835.735255,297.132154 837.437254,295.708637 C839.139252,294.28512 841.529558,293.573361 844.608173,293.573361 C847.686787,293.573361 850.540137,294.884495 853.168222,297.506764 C855.796308,300.129032 858.311761,303.612903 860.714582,307.958377 L860.714582,307.958377 L861.915993,307.958377 L861.390375,292.824142 L860.564406,292.824142 C860.013759,293.823101 859.388025,294.322581 858.687202,294.322581 C857.986379,294.322581 856.196778,293.935484 853.318399,293.16129 C850.440019,292.387097 847.674272,292 845.021157,292 C839.514693,292 835.172094,293.598335 831.993362,296.795005 C828.81463,299.991675 827.225264,303.812695 827.225264,308.258065 C827.225264,313.702393 828.777086,317.723205 831.88073,320.320499 C833.432552,321.619147 835.071977,322.668054 836.799004,323.467222 C838.526032,324.266389 841.304294,325.202914 845.13379,326.276795 C848.963286,327.350676 851.916753,328.611863 853.994192,330.060354 C856.071631,331.508845 857.110351,333.594173 857.110351,336.316337 C857.110351,339.038502 856.146719,341.073881 854.219457,342.422477 C852.292194,343.771072 850.077093,344.445369 847.574155,344.445369 C843.769688,344.445369 840.152942,342.82206 836.723916,339.575442 C833.29489,336.328824 830.479085,332.532778 828.276499,328.187305 L828.276499,328.187305 L827,328.187305 L827.750882,346.01873 L828.802116,346.01873 Z M899.835511,346.01873 C903.13939,346.01873 905.517182,345.194589 906.968886,343.546306 C908.42059,341.898023 909.24656,338.876171 909.446795,334.480749 L909.446795,334.480749 L908.320473,334.405827 C908.02012,339.550468 907.018945,342.122789 905.316947,342.122789 C903.865242,342.122789 903.13939,340.824142 903.13939,338.226847 L903.13939,338.226847 L903.13939,323.01769 C903.13939,317.623309 902.000553,313.914672 899.722879,311.891779 C897.445205,309.868887 893.327871,308.85744 887.370877,308.85744 C876.908594,308.85744 871.677453,311.92924 871.677453,318.072841 C871.677453,322.218522 873.82998,324.291363 878.135034,324.291363 C880.037268,324.291363 881.614119,323.754422 882.865588,322.680541 C884.117057,321.60666 884.742792,320.332986 884.742792,318.859521 C884.742792,317.386056 884.542557,316.12487 884.142087,315.075963 L884.142087,315.075963 L882.264883,315.075963 C881.96453,314.226847 881.814354,313.390219 881.814354,312.566077 C881.814354,311.741935 882.17728,311.092612 882.903132,310.618106 C883.628984,310.1436 884.442439,309.906348 885.343497,309.906348 C886.84526,309.906348 887.85895,310.718002 888.384568,312.341311 C888.910185,313.96462 889.172993,317.148803 889.172993,321.893861 L889.172993,321.893861 L889.172993,327.662851 L886.995437,327.662851 C881.13856,327.662851 876.795962,328.324662 873.967642,329.648283 C871.139321,330.971904 869.725161,333.406868 869.725161,336.953174 C869.725161,342.996878 873.42951,346.01873 880.838208,346.01873 C883.341146,346.01873 885.24338,345.569199 886.544908,344.670135 C887.846436,343.771072 888.822582,342.372529 889.473346,340.474506 C890.374404,344.170656 893.828459,346.01873 899.835511,346.01873 Z M885.981747,343.021852 C885.205836,343.021852 884.680218,342.647242 884.404895,341.898023 C884.129572,341.148803 883.99191,339.475546 883.99191,336.878252 L883.99191,335.679501 C883.99191,331.134235 885.543732,328.861602 888.647376,328.861602 L888.647376,328.861602 L889.172993,328.861602 L889.172993,335.829344 C889.172993,338.077003 888.835096,339.837669 888.159303,341.111342 C887.48351,342.385016 886.757657,343.021852 885.981747,343.021852 Z M937.980295,363.100937 L937.980295,361.752341 L928.293922,361.752341 L928.293922,342.347555 C929.044804,343.596254 930.02095,344.520291 931.222361,345.119667 C932.423771,345.719043 934.225887,346.01873 936.628708,346.01873 C941.784761,346.01873 945.651801,344.520291 948.229828,341.523413 C950.807855,338.526535 952.096868,333.881374 952.096868,327.587929 C952.096868,321.294485 950.907972,316.599376 948.53018,313.502601 C946.152389,310.405827 942.810966,308.85744 938.505912,308.85744 C933.550093,308.85744 930.096038,311.080125 928.143746,315.525494 L928.143746,315.525494 L928.143746,309.60666 L910.347853,309.60666 L910.347853,310.955255 L914.327525,310.955255 L914.327525,361.752341 L910.197677,361.752341 L910.197677,363.100937 L937.980295,363.100937 Z M933.324829,343.845994 C931.672889,343.845994 930.42142,343.096774 929.570421,341.598335 C928.719422,340.099896 928.293922,338.276795 928.293922,336.129032 L928.293922,336.129032 L928.293922,322.418314 C928.293922,319.271592 928.869598,316.761707 930.02095,314.888658 C931.172302,313.015609 932.47383,312.079084 933.925534,312.079084 C935.377238,312.079084 936.353384,312.965661 936.853972,314.738814 C937.35456,316.511967 937.604854,319.970864 937.604854,325.115505 L937.604854,325.115505 L937.604854,329.011446 C937.604854,334.505723 937.304501,338.351717 936.703796,340.549428 C936.103091,342.747138 934.976768,343.845994 933.324829,343.845994 Z M970.943995,346.01873 C975.098873,346.01873 978.07737,345.007284 979.879486,342.984391 C981.681601,340.961498 982.782894,338.226847 983.183364,334.780437 L983.183364,334.780437 L981.906866,334.630593 C981.556454,337.227888 980.818088,339.275754 979.691765,340.774194 C978.565443,342.272633 977.2514,343.021852 975.749637,343.021852 C974.247874,343.021852 973.259213,342.472425 972.783655,341.373569 C972.308097,340.274714 972.070317,338.551509 972.070317,336.203954 L972.070317,336.203954 L972.070317,310.955255 L981.831778,310.955255 L981.831778,309.60666 L972.070317,309.60666 L972.070317,296.495317 L958.10392,299.941727 L958.10392,309.60666 L953.974072,309.60666 L953.974072,310.955255 L958.10392,310.955255 L958.10392,334.555671 C958.10392,338.901145 959.205213,341.898023 961.407799,343.546306 C963.610385,345.194589 966.789117,346.01873 970.943995,346.01873 Z M1014.79548,346.01873 C1018.09936,346.01873 1020.47715,345.194589 1021.92885,343.546306 C1023.38056,341.898023 1024.20653,338.876171 1024.40676,334.480749 L1024.40676,334.480749 L1023.28044,334.405827 C1022.98009,339.550468 1021.97891,342.122789 1020.27691,342.122789 C1018.82521,342.122789 1018.09936,340.824142 1018.09936,338.226847 L1018.09936,338.226847 L1018.09936,323.01769 C1018.09936,317.623309 1016.96052,313.914672 1014.68285,311.891779 C1012.40517,309.868887 1008.28784,308.85744 1002.33084,308.85744 C991.868561,308.85744 986.63742,311.92924 986.63742,318.072841 C986.63742,322.218522 988.789947,324.291363 993.095001,324.291363 C994.997234,324.291363 996.574086,323.754422 997.825555,322.680541 C999.077024,321.60666 999.702759,320.332986 999.702759,318.859521 C999.702759,317.386056 999.502524,316.12487 999.102054,315.075963 L999.102054,315.075963 L997.22485,315.075963 C996.924497,314.226847 996.774321,313.390219 996.774321,312.566077 C996.774321,311.741935 997.137247,311.092612 997.863099,310.618106 C998.588951,310.1436 999.402406,309.906348 1000.30346,309.906348 C1001.80523,309.906348 1002.81892,310.718002 1003.34453,312.341311 C1003.87015,313.96462 1004.13296,317.148803 1004.13296,321.893861 L1004.13296,321.893861 L1004.13296,327.662851 L1001.9554,327.662851 C996.098527,327.662851 991.755929,328.324662 988.927608,329.648283 C986.099288,330.971904 984.685128,333.406868 984.685128,336.953174 C984.685128,342.996878 988.389477,346.01873 995.798175,346.01873 C998.301113,346.01873 1000.20335,345.569199 1001.50487,344.670135 C1002.8064,343.771072 1003.78255,342.372529 1004.43331,340.474506 C1005.33437,344.170656 1008.78843,346.01873 1014.79548,346.01873 Z M1000.94171,343.021852 C1000.1658,343.021852 999.640185,342.647242 999.364862,341.898023 C999.089539,341.148803 998.951877,339.475546 998.951877,336.878252 L998.951877,335.679501 C998.951877,331.134235 1000.5037,328.861602 1003.60734,328.861602 L1003.60734,328.861602 L1004.13296,328.861602 L1004.13296,335.829344 C1004.13296,338.077003 1003.79506,339.837669 1003.11927,341.111342 C1002.44348,342.385016 1001.71762,343.021852 1000.94171,343.021852 Z M1048.58515,345.269511 L1048.58515,343.920916 L1043.25389,343.920916 L1043.25389,323.841831 C1043.25389,320.545265 1043.95471,317.698231 1045.35636,315.300728 C1046.758,312.903226 1048.38491,311.704475 1050.23709,311.704475 C1052.53979,311.704475 1053.06541,312.978148 1051.81394,315.525494 L1051.81394,315.525494 L1049.11077,315.525494 C1048.30983,318.172737 1048.44749,320.245578 1049.52375,321.744017 C1050.60001,323.242456 1052.27698,323.991675 1054.55466,323.991675 C1056.83233,323.991675 1058.52181,323.342352 1059.62311,322.043704 C1060.7244,320.745057 1061.27505,318.884495 1061.27505,316.462019 C1061.27505,314.039542 1060.53668,312.166493 1059.05995,310.842872 C1057.58321,309.519251 1055.66846,308.85744 1053.3157,308.85744 C1050.96294,308.85744 1048.86047,309.544225 1047.0083,310.917794 C1045.15612,312.291363 1043.90465,314.251821 1043.25389,316.799168 L1043.25389,316.799168 L1043.25389,309.60666 L1025.15764,309.60666 L1025.15764,310.955255 L1029.28749,310.955255 L1029.28749,343.920916 L1025.15764,343.920916 L1025.15764,345.269511 L1048.58515,345.269511 Z M1093.18751,346.01873 C1096.49139,346.01873 1098.86918,345.194589 1100.32089,343.546306 C1101.77259,341.898023 1102.59856,338.876171 1102.7988,334.480749 L1102.7988,334.480749 L1101.67247,334.405827 C1101.37212,339.550468 1100.37095,342.122789 1098.66895,342.122789 C1097.21724,342.122789 1096.49139,340.824142 1096.49139,338.226847 L1096.49139,338.226847 L1096.49139,323.01769 C1096.49139,317.623309 1095.35255,313.914672 1093.07488,311.891779 C1090.79721,309.868887 1086.67987,308.85744 1080.72288,308.85744 C1070.2606,308.85744 1065.02945,311.92924 1065.02945,318.072841 C1065.02945,322.218522 1067.18198,324.291363 1071.48704,324.291363 C1073.38927,324.291363 1074.96612,323.754422 1076.21759,322.680541 C1077.46906,321.60666 1078.09479,320.332986 1078.09479,318.859521 C1078.09479,317.386056 1077.89456,316.12487 1077.49409,315.075963 L1077.49409,315.075963 L1075.61688,315.075963 C1075.31653,314.226847 1075.16636,313.390219 1075.16636,312.566077 C1075.16636,311.741935 1075.52928,311.092612 1076.25513,310.618106 C1076.98099,310.1436 1077.79444,309.906348 1078.6955,309.906348 C1080.19726,309.906348 1081.21095,310.718002 1081.73657,312.341311 C1082.26219,313.96462 1082.52499,317.148803 1082.52499,321.893861 L1082.52499,321.893861 L1082.52499,327.662851 L1080.34744,327.662851 C1074.49056,327.662851 1070.14796,328.324662 1067.31964,329.648283 C1064.49132,330.971904 1063.07716,333.406868 1063.07716,336.953174 C1063.07716,342.996878 1066.78151,346.01873 1074.19021,346.01873 C1076.69315,346.01873 1078.59538,345.569199 1079.89691,344.670135 C1081.19844,343.771072 1082.17458,342.372529 1082.82535,340.474506 C1083.72641,344.170656 1087.18046,346.01873 1093.18751,346.01873 Z M1079.33375,343.021852 C1078.55784,343.021852 1078.03222,342.647242 1077.7569,341.898023 C1077.48157,341.148803 1077.34391,339.475546 1077.34391,336.878252 L1077.34391,335.679501 C1077.34391,331.134235 1078.89573,328.861602 1081.99938,328.861602 L1081.99938,328.861602 L1082.52499,328.861602 L1082.52499,335.829344 C1082.52499,338.077003 1082.1871,339.837669 1081.5113,341.111342 C1080.83551,342.385016 1080.10966,343.021852 1079.33375,343.021852 Z M1125.02489,345.269511 L1125.02489,343.920916 L1121.7961,343.920916 L1121.7961,323.242456 C1121.7961,320.245578 1122.40932,317.698231 1123.63576,315.600416 C1124.8622,313.502601 1126.27636,312.453694 1127.87824,312.453694 C1128.92948,312.453694 1129.65533,312.890739 1130.0558,313.764828 C1130.45627,314.638918 1130.6565,316.574402 1130.6565,319.57128 L1130.6565,319.57128 L1130.6565,343.920916 L1127.57789,343.920916 L1127.57789,345.269511 L1148.82784,345.269511 L1148.82784,343.920916 L1144.6229,343.920916 L1144.6229,321.369407 C1144.6229,313.028096 1140.74335,308.85744 1132.98424,308.85744 C1129.6303,308.85744 1127.12736,309.556712 1125.47542,310.955255 C1123.82348,312.353798 1122.59704,314.201873 1121.7961,316.49948 L1121.7961,316.49948 L1121.7961,309.60666 L1103.69985,309.60666 L1103.69985,310.955255 L1107.8297,310.955255 L1107.8297,343.920916 L1103.69985,343.920916 L1103.69985,345.269511 L1125.02489,345.269511 Z M1166.84899,364 C1174.10752,364 1179.45129,362.71384 1182.88032,360.141519 C1186.30934,357.569199 1188.02385,354.085328 1188.02385,349.689906 C1188.02385,341.548387 1182.34218,337.477627 1170.97884,337.477627 L1170.97884,337.477627 L1163.31985,337.477627 C1160.11609,337.477627 1158.51421,337.127992 1158.51421,336.42872 C1158.51421,335.729448 1159.6155,334.680541 1161.81809,333.281998 C1163.92056,333.681582 1165.94794,333.881374 1167.90023,333.881374 C1172.60575,333.881374 1176.33513,332.782518 1179.08836,330.584807 C1181.8416,328.387097 1183.21821,325.30281 1183.21821,321.331946 C1183.21821,317.361082 1181.31598,314.101977 1177.51151,311.554631 C1177.1611,309.8564 1176.9859,308.35796 1176.9859,307.059313 C1176.9859,303.762747 1178.06216,302.114464 1180.21469,302.114464 C1181.71645,302.114464 1182.31715,302.888658 1182.0168,304.437045 L1182.0168,304.437045 L1179.91433,305.710718 C1179.96439,306.959417 1180.40241,307.920916 1181.22838,308.595213 C1182.05435,309.269511 1183.10558,309.60666 1184.38208,309.60666 C1185.65858,309.60666 1186.74736,309.194589 1187.64841,308.370447 C1188.54947,307.546306 1189,306.28512 1189,304.586889 C1189,302.888658 1188.43684,301.552549 1187.31052,300.578564 C1186.18419,299.604579 1184.69495,299.117586 1182.84277,299.117586 C1180.9906,299.117586 1179.31363,299.741935 1177.81186,300.990635 C1176.3101,302.239334 1175.55922,304.262227 1175.55922,307.059313 C1175.55922,308.158169 1175.7094,309.381894 1176.00975,310.730489 C1173.70705,309.48179 1170.92878,308.85744 1167.67496,308.85744 C1162.26862,308.85744 1158.21386,310.006243 1155.51068,312.30385 C1152.80751,314.601457 1151.45592,317.623309 1151.45592,321.369407 C1151.45592,327.313215 1154.35933,331.109261 1160.16615,332.757544 C1156.96239,334.705515 1154.73477,336.341311 1153.4833,337.664932 C1152.23183,338.988554 1151.6061,340.636837 1151.6061,342.609781 C1151.6061,344.582726 1152.48213,346.243496 1154.23418,347.592092 C1155.98624,348.940687 1158.88965,349.614984 1162.94441,349.614984 L1162.94441,349.614984 L1170.22796,349.614984 C1174.03243,349.614984 1176.57291,349.977107 1177.84941,350.701353 C1179.12591,351.425598 1179.76416,352.861602 1179.76416,355.009365 C1179.76416,357.157128 1178.71292,358.955255 1176.61045,360.403746 C1174.50799,361.852237 1171.50446,362.576483 1167.59988,362.576483 C1161.19235,362.576483 1157.98859,360.42872 1157.98859,356.133195 C1157.98859,354.834547 1158.18883,353.460978 1158.5893,352.012487 L1158.5893,352.012487 L1154.08401,349.989594 C1150.22948,351.08845 1148.30222,353.086368 1148.30222,355.983351 C1148.30222,361.327784 1154.48448,364 1166.84899,364 Z M1167.48724,332.382934 C1166.31086,332.382934 1165.43483,331.783559 1164.85916,330.584807 C1164.28348,329.386056 1163.99564,327.113424 1163.99564,323.766909 L1163.99564,323.766909 L1163.99564,319.721124 C1163.99564,315.925078 1164.296,313.390219 1164.8967,312.116545 C1165.49741,310.842872 1166.38595,310.206035 1167.56233,310.206035 C1168.73871,310.206035 1169.5772,310.817898 1170.07778,312.041623 C1170.57837,313.265349 1170.82867,315.825182 1170.82867,319.721124 L1170.82867,319.721124 L1170.82867,323.3923 C1170.82867,327.038502 1170.56586,329.448491 1170.04024,330.622268 C1169.51462,331.796046 1168.66362,332.382934 1167.48724,332.382934 Z" id="path-2"></path>
        <filter x="-0.3%" y="-1.4%" width="101.1%" height="104.2%" filterUnits="objectBoundingBox" id="filter-3">
            <feOffset dx="2" dy="1" in="SourceAlpha" result="shadowOffsetOuter1"></feOffset>
            <feColorMatrix values="0 0 0 0 0.638700181   0 0 0 0 0.511052763   0 0 0 0 0.311256805  0 0 0 0.24961757 0" type="matrix" in="shadowOffsetOuter1"></feColorMatrix>
        </filter>
    </defs>
    <g id="Page-1" stroke="none" stroke-width="1" fill="none" fill-rule="evenodd">
        <g id="Saptarang-Landing" transform="translate(-827.000000, -292.000000)" fill-rule="nonzero">
            <g id="Saptarang">
                <use fill="black" fill-opacity="1" filter="url(#filter-3)" xlink:href="#path-2"></use>
                <use fill="#211B0C" xlink:href="#path-2"></use>
                <use fill="url(#linearGradient-1)" xlink:href="#path-2"></use>
            </g>
        </g>
    </g>
</svg>