<?xml version="1.0" encoding="UTF-8"?>
<svg width="30px" height="30px" viewBox="0 0 30 30" version="1.1" xmlns="http://www.w3.org/2000/svg" xmlns:xlink="http://www.w3.org/1999/xlink">
    <!-- Generator: sketchtool 58 (101010) - https://sketch.com -->
    <title>2141DFA6-8F8B-421B-9204-5402EA7443A1</title>
    <desc>Created with sketchtool.</desc>
    <g id="Post-Cards" stroke="none" stroke-width="1" fill="none" fill-rule="evenodd">
        <g id="media-post-" transform="translate(-507.000000, -3886.000000)" fill="#0077B5" fill-rule="nonzero">
            <g id="Group-14" transform="translate(352.000000, 3790.000000)">
                <g id="Group-13" transform="translate(13.000000, 96.000000)">
                    <g id="iconmonstr-linkedin-4" transform="translate(142.000000, 0.000000)">
                        <path d="M15,0 C6.71625,0 0,6.71625 0,15 C0,23.28375 6.71625,30 15,30 C23.28375,30 30,23.28375 30,15 C30,6.71625 23.28375,0 15,0 Z M12.5,20 L10,20 L10,12.5 L12.5,12.5 L12.5,20 Z M11.25,11.38625 C10.49125,11.38625 9.875,10.76625 9.875,10 C9.875,9.235 10.49,8.61375 11.25,8.61375 C12.01,8.61375 12.625,9.235 12.625,10 C12.625,10.76625 12.00875,11.38625 11.25,11.38625 Z M21.25,20 L18.7525,20 L18.7525,16.42375 C18.7525,14.0725 16.25,14.27125 16.25,16.42375 L16.25,20 L13.75,20 L13.75,12.5 L16.25,12.5 L16.25,13.86625 C17.34,11.84625 21.25,11.69625 21.25,15.80125 L21.25,20 Z" id="Shape"></path>
                    </g>
                </g>
            </g>
        </g>
    </g>
</svg>