<?xml version="1.0" encoding="UTF-8"?>
<svg width="30px" height="30px" viewBox="0 0 30 30" version="1.1" xmlns="http://www.w3.org/2000/svg" xmlns:xlink="http://www.w3.org/1999/xlink">
    <!-- Generator: sketchtool 58 (101010) - https://sketch.com -->
    <title>2608BC8F-FBAF-4353-9DE4-0CABE137C901</title>
    <desc>Created with sketchtool.</desc>
    <defs>
        <path d="M18.53625,7.8775 C17.61375,7.835 17.33625,7.8275 15,7.8275 C12.66375,7.8275 12.3875,7.83625 11.465,7.8775 C9.09125,7.98625 7.98625,9.11 7.8775,11.465 C7.83625,12.3875 7.82625,12.66375 7.82625,15 C7.82625,17.33625 7.83625,17.6125 7.8775,18.53625 C7.98625,20.885 9.08625,22.015 11.465,22.12375 C12.38625,22.165 12.66375,22.175 15,22.175 C17.3375,22.175 17.61375,22.16625 18.53625,22.12375 C20.91,22.01625 22.01375,20.88875 22.12375,18.53625 C22.165,17.61375 22.17375,17.33625 22.17375,15 C22.17375,12.66375 22.165,12.3875 22.12375,11.465 C22.01375,9.11125 20.9075,7.98625 18.53625,7.8775 Z M15,19.49375 C12.51875,19.49375 10.50625,17.4825 10.50625,15 C10.50625,12.51875 12.51875,10.5075 15,10.5075 C17.48125,10.5075 19.49375,12.51875 19.49375,15 C19.49375,17.48125 17.48125,19.49375 15,19.49375 Z M19.67125,11.38 C19.09125,11.38 18.62125,10.91 18.62125,10.33 C18.62125,9.75 19.09125,9.28 19.67125,9.28 C20.25125,9.28 20.72125,9.75 20.72125,10.33 C20.72125,10.90875 20.25125,11.38 19.67125,11.38 L19.67125,11.38 Z M17.91625,15 C17.91625,16.61125 16.61,17.91625 15,17.91625 C13.39,17.91625 12.08375,16.61125 12.08375,15 C12.08375,13.38875 13.39,12.08375 15,12.08375 C16.61,12.08375 17.91625,13.38875 17.91625,15 Z M15,0 C6.71625,0 0,6.71625 0,15 C0,23.28375 6.71625,30 15,30 C23.28375,30 30,23.28375 30,15 C30,6.71625 23.28375,0 15,0 Z M23.6975,18.6075 C23.55375,21.78875 21.7825,23.55125 18.60875,23.6975 C17.675,23.74 17.37625,23.75 15,23.75 C12.62375,23.75 12.32625,23.74 11.3925,23.6975 C8.2125,23.55125 6.44875,21.78625 6.3025,18.6075 C6.26,17.675 6.25,17.37625 6.25,15 C6.25,12.62375 6.26,12.32625 6.3025,11.3925 C6.44875,8.2125 8.21375,6.44875 11.3925,6.30375 C12.32625,6.26 12.62375,6.25 15,6.25 C17.37625,6.25 17.675,6.26 18.60875,6.30375 C21.79,6.45 23.555,8.21875 23.6975,11.3925 C23.74,12.32625 23.75,12.62375 23.75,15 C23.75,17.37625 23.74,17.675 23.6975,18.6075 Z" id="path-1"></path>
    </defs>
    <g id="Post-Cards" stroke="none" stroke-width="1" fill="none" fill-rule="evenodd">
        <g id="media-post-" transform="translate(-412.000000, -3886.000000)">
            <g id="Group-14" transform="translate(352.000000, 3790.000000)">
                <g id="Group-13" transform="translate(13.000000, 96.000000)">
                    <g id="iconmonstr-instagram-14" transform="translate(47.000000, 0.000000)">
                        <g id="bottom-+-Oval-12-+-Oval-13-+-Oval-13-+-Oval-13-+-Oval-13-Mask">
                            <mask id="mask-2" fill="white">
                                <use xlink:href="#path-1"></use>
                            </mask>
                            <use id="Mask" fill="#3F729B" fill-rule="nonzero" xlink:href="#path-1"></use>
                        </g>
                    </g>
                </g>
            </g>
        </g>
    </g>
</svg>