<?xml version="1.0" encoding="UTF-8"?>
<svg width="30px" height="30px" viewBox="0 0 30 30" version="1.1" xmlns="http://www.w3.org/2000/svg" xmlns:xlink="http://www.w3.org/1999/xlink">
    <!-- Generator: sketchtool 58 (101010) - https://sketch.com -->
    <title>6756D0EA-3F5B-4A4C-83AA-6026C73D7526</title>
    <desc>Created with sketchtool.</desc>
    <g id="Post-Cards" stroke="none" stroke-width="1" fill="none" fill-rule="evenodd">
        <g id="media-post-" transform="translate(-553.000000, -3886.000000)" fill="#4FCE5D" fill-rule="nonzero">
            <g id="Group-14" transform="translate(352.000000, 3790.000000)">
                <g id="Group-13" transform="translate(13.000000, 96.000000)">
                    <g id="iconmonstr-whatsapp-4" transform="translate(188.000000, 0.000000)">
                        <path d="M15.03875,7.715 C11.0625,7.715 7.83,10.9475 7.82874755,14.9225 C7.8275,16.545 8.30375,17.76 9.1025,19.03125 L8.375,21.69125 L11.1025,20.975 C12.325,21.7 13.49125,22.135 15.03375,22.13625 C19.00625,22.13625 22.2425,18.9025 22.2437504,14.92875 C22.245,10.945 19.025,7.71625 15.03875,7.715 L15.03875,7.715 Z M19.27875,18.02 C19.09875,18.52625 18.2325,18.9875 17.81625,19.05 C17.4425,19.10625 16.97,19.12875 16.45125,18.96375 C16.13625,18.86375 15.7325,18.73 15.21625,18.5075 C13.0425,17.56875 11.62375,15.38 11.515,15.23625 C11.40625,15.09125 10.63,14.06125 10.63,12.995 C10.63,11.92875 11.19,11.40375 11.38875,11.1875 C11.5875,10.97125 11.82125,10.91625 11.96625,10.91625 L12.38125,10.92375 C12.51375,10.93 12.6925,10.87375 12.86875,11.29625 C13.04875,11.73 13.4825,12.79625 13.53625,12.905 C13.59,13.01375 13.62625,13.14 13.55375,13.285 C13.48125,13.43 13.445,13.52 13.3375,13.64625 L13.0125,14.02625 C12.90375,14.13375 12.79125,14.25125 12.9175,14.46875 C13.04375,14.68625 13.47875,15.395 14.1225,15.97 C14.95,16.70875 15.64875,16.9375 15.865,17.045 C16.08125,17.1525 16.2075,17.135 16.335,16.99125 C16.46125,16.84625 16.87625,16.35875 17.02125,16.14125 C17.16625,15.925 17.31,15.96 17.50875,16.0325 C17.7075,16.105 18.7725,16.62875 18.98875,16.7375 C19.205,16.84625 19.35,16.9 19.40375,16.99 C19.46,17.08 19.46,17.51375 19.27875,18.02 L19.27875,18.02 Z M15,0 C6.71625,0 0,6.71625 0,15 C0,23.28375 6.71625,30 15,30 C23.28375,30 30,23.28375 30,15 C30,6.71625 23.28375,0 15,0 Z M15.03625,23.6 C13.585,23.6 12.155,23.235 10.88875,22.545 L6.2925,23.75 L7.5225,19.25625 C6.76375,17.94125 6.36375,16.44875 6.365,14.92125 C6.36625,10.14 10.25625,6.25 15.03625,6.25 C17.35625,6.25125 19.53375,7.15375 21.17,8.7925 C22.8075,10.43125 23.70875,12.61 23.7075013,14.9275 C23.70625,19.70875 19.81625,23.6 15.03625,23.6 L15.03625,23.6 Z" id="Shape"></path>
                    </g>
                </g>
            </g>
        </g>
    </g>
</svg>